<svg id="visual" viewBox="0 0 900 600" width="900" height="600" xmlns="http://www.w3.org/2000/svg" xmlns:xlink="http://www.w3.org/1999/xlink" version="1.1"><rect x="0" y="0" width="900" height="600" fill="#ffffff"></rect><defs><linearGradient id="grad1_0" x1="33.3%" y1="0%" x2="100%" y2="100%"><stop offset="20%" stop-color="#618cd8" stop-opacity="1"></stop><stop offset="80%" stop-color="#618cd8" stop-opacity="1"></stop></linearGradient></defs><defs><linearGradient id="grad1_1" x1="33.3%" y1="0%" x2="100%" y2="100%"><stop offset="20%" stop-color="#618cd8" stop-opacity="1"></stop><stop offset="80%" stop-color="#85a2e0" stop-opacity="1"></stop></linearGradient></defs><defs><linearGradient id="grad1_2" x1="33.3%" y1="0%" x2="100%" y2="100%"><stop offset="20%" stop-color="#a6b8e8" stop-opacity="1"></stop><stop offset="80%" stop-color="#85a2e0" stop-opacity="1"></stop></linearGradient></defs><defs><linearGradient id="grad1_3" x1="33.3%" y1="0%" x2="100%" y2="100%"><stop offset="20%" stop-color="#a6b8e8" stop-opacity="1"></stop><stop offset="80%" stop-color="#c4cff0" stop-opacity="1"></stop></linearGradient></defs><defs><linearGradient id="grad1_4" x1="33.3%" y1="0%" x2="100%" y2="100%"><stop offset="20%" stop-color="#e2e7f8" stop-opacity="1"></stop><stop offset="80%" stop-color="#c4cff0" stop-opacity="1"></stop></linearGradient></defs><defs><linearGradient id="grad1_5" x1="33.3%" y1="0%" x2="100%" y2="100%"><stop offset="20%" stop-color="#e2e7f8" stop-opacity="1"></stop><stop offset="80%" stop-color="#ffffff" stop-opacity="1"></stop></linearGradient></defs><defs><linearGradient id="grad2_0" x1="0%" y1="0%" x2="66.7%" y2="100%"><stop offset="20%" stop-color="#618cd8" stop-opacity="1"></stop><stop offset="80%" stop-color="#618cd8" stop-opacity="1"></stop></linearGradient></defs><defs><linearGradient id="grad2_1" x1="0%" y1="0%" x2="66.7%" y2="100%"><stop offset="20%" stop-color="#85a2e0" stop-opacity="1"></stop><stop offset="80%" stop-color="#618cd8" stop-opacity="1"></stop></linearGradient></defs><defs><linearGradient id="grad2_2" x1="0%" y1="0%" x2="66.7%" y2="100%"><stop offset="20%" stop-color="#85a2e0" stop-opacity="1"></stop><stop offset="80%" stop-color="#a6b8e8" stop-opacity="1"></stop></linearGradient></defs><defs><linearGradient id="grad2_3" x1="0%" y1="0%" x2="66.7%" y2="100%"><stop offset="20%" stop-color="#c4cff0" stop-opacity="1"></stop><stop offset="80%" stop-color="#a6b8e8" stop-opacity="1"></stop></linearGradient></defs><defs><linearGradient id="grad2_4" x1="0%" y1="0%" x2="66.7%" y2="100%"><stop offset="20%" stop-color="#c4cff0" stop-opacity="1"></stop><stop offset="80%" stop-color="#e2e7f8" stop-opacity="1"></stop></linearGradient></defs><defs><linearGradient id="grad2_5" x1="0%" y1="0%" x2="66.7%" y2="100%"><stop offset="20%" stop-color="#ffffff" stop-opacity="1"></stop><stop offset="80%" stop-color="#e2e7f8" stop-opacity="1"></stop></linearGradient></defs><g transform="translate(900, 0)"><path d="M0 243.4C-25.4 223.5 -50.8 203.7 -80.4 194C-109.9 184.3 -143.7 184.8 -169.7 169.7C-195.7 154.6 -213.9 124 -224.8 93.1C-235.8 62.3 -239.6 31.1 -243.4 0L0 0Z" fill="#f0f3fb"></path><path d="M0 202.8C-21.2 186.3 -42.3 169.8 -67 161.7C-91.6 153.6 -119.8 154 -141.4 141.4C-163.1 128.9 -178.2 103.3 -187.4 77.6C-196.5 51.9 -199.7 25.9 -202.8 0L0 0Z" fill="#d3dbf4"></path><path d="M0 162.2C-16.9 149 -33.9 135.8 -53.6 129.3C-73.3 122.9 -95.8 123.2 -113.1 113.1C-130.5 103.1 -142.6 82.7 -149.9 62.1C-157.2 41.5 -159.7 20.8 -162.2 0L0 0Z" fill="#b5c4ec"></path><path d="M0 121.7C-12.7 111.8 -25.4 101.9 -40.2 97C-55 92.2 -71.9 92.4 -84.9 84.9C-97.8 77.3 -106.9 62 -112.4 46.6C-117.9 31.1 -119.8 15.6 -121.7 0L0 0Z" fill="#96ade4"></path><path d="M0 81.1C-8.5 74.5 -16.9 67.9 -26.8 64.7C-36.6 61.4 -47.9 61.6 -56.6 56.6C-65.2 51.5 -71.3 41.3 -74.9 31C-78.6 20.8 -79.9 10.4 -81.1 0L0 0Z" fill="#7497dc"></path><path d="M0 40.6C-4.2 37.3 -8.5 34 -13.4 32.3C-18.3 30.7 -24 30.8 -28.3 28.3C-32.6 25.8 -35.6 20.7 -37.5 15.5C-39.3 10.4 -39.9 5.2 -40.6 0L0 0Z" fill="#618cd8"></path></g><g transform="translate(0, 600)"><path d="M0 -243.4C32.1 -237.5 64.3 -231.7 89.9 -217.1C115.6 -202.5 134.8 -179.2 158.4 -158.4C182 -137.5 210 -119.1 224.8 -93.1C239.7 -67.1 241.6 -33.6 243.4 0L0 0Z" fill="#f0f3fb"></path><path d="M0 -202.8C26.8 -197.9 53.6 -193.1 74.9 -180.9C96.3 -168.8 112.3 -149.4 132 -132C151.7 -114.6 175 -99.3 187.4 -77.6C199.8 -56 201.3 -28 202.8 0L0 0Z" fill="#d3dbf4"></path><path d="M0 -162.2C21.4 -158.4 42.8 -154.5 60 -144.7C77.1 -135 89.9 -119.5 105.6 -105.6C121.3 -91.7 140 -79.4 149.9 -62.1C159.8 -44.8 161 -22.4 162.2 0L0 0Z" fill="#b5c4ec"></path><path d="M0 -121.7C16.1 -118.8 32.1 -115.8 45 -108.6C57.8 -101.3 67.4 -89.6 79.2 -79.2C91 -68.8 105 -59.6 112.4 -46.6C119.9 -33.6 120.8 -16.8 121.7 0L0 0Z" fill="#96ade4"></path><path d="M0 -81.1C10.7 -79.2 21.4 -77.2 30 -72.4C38.5 -67.5 44.9 -59.7 52.8 -52.8C60.7 -45.8 70 -39.7 74.9 -31C79.9 -22.4 80.5 -11.2 81.1 0L0 0Z" fill="#7497dc"></path><path d="M0 -40.6C5.4 -39.6 10.7 -38.6 15 -36.2C19.3 -33.8 22.5 -29.9 26.4 -26.4C30.3 -22.9 35 -19.9 37.5 -15.5C40 -11.2 40.3 -5.6 40.6 0L0 0Z" fill="#618cd8"></path></g></svg>