<svg id="visual" viewBox="0 0 900 600" width="900" height="600" xmlns="http://www.w3.org/2000/svg" xmlns:xlink="http://www.w3.org/1999/xlink" version="1.1"><rect x="0" y="0" width="900" height="600" fill="#ffffff"></rect><defs><linearGradient id="grad1_0" x1="33.3%" y1="0%" x2="100%" y2="100%"><stop offset="20%" stop-color="#618cd8" stop-opacity="1"></stop><stop offset="80%" stop-color="#618cd8" stop-opacity="1"></stop></linearGradient></defs><defs><linearGradient id="grad1_1" x1="33.3%" y1="0%" x2="100%" y2="100%"><stop offset="20%" stop-color="#618cd8" stop-opacity="1"></stop><stop offset="80%" stop-color="#7c9bde" stop-opacity="1"></stop></linearGradient></defs><defs><linearGradient id="grad1_2" x1="33.3%" y1="0%" x2="100%" y2="100%"><stop offset="20%" stop-color="#93abe4" stop-opacity="1"></stop><stop offset="80%" stop-color="#7c9bde" stop-opacity="1"></stop></linearGradient></defs><defs><linearGradient id="grad1_3" x1="33.3%" y1="0%" x2="100%" y2="100%"><stop offset="20%" stop-color="#93abe4" stop-opacity="1"></stop><stop offset="80%" stop-color="#aabbe9" stop-opacity="1"></stop></linearGradient></defs><defs><linearGradient id="grad1_4" x1="33.3%" y1="0%" x2="100%" y2="100%"><stop offset="20%" stop-color="#c0ccef" stop-opacity="1"></stop><stop offset="80%" stop-color="#aabbe9" stop-opacity="1"></stop></linearGradient></defs><defs><linearGradient id="grad1_5" x1="33.3%" y1="0%" x2="100%" y2="100%"><stop offset="20%" stop-color="#c0ccef" stop-opacity="1"></stop><stop offset="80%" stop-color="#d5ddf4" stop-opacity="1"></stop></linearGradient></defs><defs><linearGradient id="grad1_6" x1="33.3%" y1="0%" x2="100%" y2="100%"><stop offset="20%" stop-color="#eaeefa" stop-opacity="1"></stop><stop offset="80%" stop-color="#d5ddf4" stop-opacity="1"></stop></linearGradient></defs><defs><linearGradient id="grad1_7" x1="33.3%" y1="0%" x2="100%" y2="100%"><stop offset="20%" stop-color="#eaeefa" stop-opacity="1"></stop><stop offset="80%" stop-color="#ffffff" stop-opacity="1"></stop></linearGradient></defs><defs><linearGradient id="grad2_0" x1="0%" y1="0%" x2="66.7%" y2="100%"><stop offset="20%" stop-color="#618cd8" stop-opacity="1"></stop><stop offset="80%" stop-color="#618cd8" stop-opacity="1"></stop></linearGradient></defs><defs><linearGradient id="grad2_1" x1="0%" y1="0%" x2="66.7%" y2="100%"><stop offset="20%" stop-color="#7c9bde" stop-opacity="1"></stop><stop offset="80%" stop-color="#618cd8" stop-opacity="1"></stop></linearGradient></defs><defs><linearGradient id="grad2_2" x1="0%" y1="0%" x2="66.7%" y2="100%"><stop offset="20%" stop-color="#7c9bde" stop-opacity="1"></stop><stop offset="80%" stop-color="#93abe4" stop-opacity="1"></stop></linearGradient></defs><defs><linearGradient id="grad2_3" x1="0%" y1="0%" x2="66.7%" y2="100%"><stop offset="20%" stop-color="#aabbe9" stop-opacity="1"></stop><stop offset="80%" stop-color="#93abe4" stop-opacity="1"></stop></linearGradient></defs><defs><linearGradient id="grad2_4" x1="0%" y1="0%" x2="66.7%" y2="100%"><stop offset="20%" stop-color="#aabbe9" stop-opacity="1"></stop><stop offset="80%" stop-color="#c0ccef" stop-opacity="1"></stop></linearGradient></defs><defs><linearGradient id="grad2_5" x1="0%" y1="0%" x2="66.7%" y2="100%"><stop offset="20%" stop-color="#d5ddf4" stop-opacity="1"></stop><stop offset="80%" stop-color="#c0ccef" stop-opacity="1"></stop></linearGradient></defs><defs><linearGradient id="grad2_6" x1="0%" y1="0%" x2="66.7%" y2="100%"><stop offset="20%" stop-color="#d5ddf4" stop-opacity="1"></stop><stop offset="80%" stop-color="#eaeefa" stop-opacity="1"></stop></linearGradient></defs><defs><linearGradient id="grad2_7" x1="0%" y1="0%" x2="66.7%" y2="100%"><stop offset="20%" stop-color="#ffffff" stop-opacity="1"></stop><stop offset="80%" stop-color="#eaeefa" stop-opacity="1"></stop></linearGradient></defs><g transform="translate(900, 0)"><path d="M0 162.2C-17.3 161.7 -34.6 161.1 -50.1 154.3C-65.7 147.5 -79.6 134.5 -86.4 118.9C-93.2 103.4 -92.9 85.3 -101.1 73.5C-109.4 61.6 -126.3 56 -137.9 44.8C-149.5 33.6 -155.9 16.8 -162.2 0L0 0Z" fill="#f5f6fc"></path><path d="M0 142C-15.1 141.5 -30.2 141 -43.9 135C-57.5 129.1 -69.7 117.7 -75.6 104.1C-81.5 90.5 -81.2 74.6 -88.5 64.3C-95.7 53.9 -110.5 49 -120.7 39.2C-130.8 29.4 -136.4 14.7 -142 0L0 0Z" fill="#e0e5f7"></path><path d="M0 121.7C-13 121.3 -25.9 120.8 -37.6 115.7C-49.3 110.6 -59.7 100.9 -64.8 89.2C-69.9 77.5 -69.6 64 -75.8 55.1C-82.1 46.2 -94.7 42 -103.4 33.6C-112.1 25.2 -116.9 12.6 -121.7 0L0 0Z" fill="#cbd4f2"></path><path d="M0 101.4C-10.8 101.1 -21.6 100.7 -31.3 96.4C-41.1 92.2 -49.8 84 -54 74.3C-58.2 64.6 -58 53.3 -63.2 45.9C-68.4 38.5 -78.9 35 -86.2 28C-93.5 21 -97.4 10.5 -101.4 0L0 0Z" fill="#b5c4ec"></path><path d="M0 81.1C-8.6 80.8 -17.3 80.6 -25.1 77.2C-32.9 73.8 -39.8 67.2 -43.2 59.5C-46.6 51.7 -46.4 42.7 -50.6 36.7C-54.7 30.8 -63.1 28 -69 22.4C-74.8 16.8 -77.9 8.4 -81.1 0L0 0Z" fill="#9fb3e6"></path><path d="M0 60.8C-6.5 60.6 -13 60.4 -18.8 57.9C-24.6 55.3 -29.9 50.4 -32.4 44.6C-34.9 38.8 -34.8 32 -37.9 27.6C-41 23.1 -47.4 21 -51.7 16.8C-56.1 12.6 -58.5 6.3 -60.8 0L0 0Z" fill="#88a3e1"></path><path d="M0 40.6C-4.3 40.4 -8.6 40.3 -12.5 38.6C-16.4 36.9 -19.9 33.6 -21.6 29.7C-23.3 25.8 -23.2 21.3 -25.3 18.4C-27.4 15.4 -31.6 14 -34.5 11.2C-37.4 8.4 -39 4.2 -40.6 0L0 0Z" fill="#6f94db"></path><path d="M0 20.3C-2.2 20.2 -4.3 20.1 -6.3 19.3C-8.2 18.4 -10 16.8 -10.8 14.9C-11.6 12.9 -11.6 10.7 -12.6 9.2C-13.7 7.7 -15.8 7 -17.2 5.6C-18.7 4.2 -19.5 2.1 -20.3 0L0 0Z" fill="#618cd8"></path></g><g transform="translate(0, 600)"><path d="M0 -162.2C17.2 -159.3 34.5 -156.4 47.6 -146.5C60.7 -136.5 69.7 -119.6 77.6 -106.8C85.5 -94 92.2 -85.4 106.8 -77.6C121.4 -69.8 143.8 -62.9 154.3 -50.1C164.9 -37.4 163.6 -18.7 162.2 0L0 0Z" fill="#f5f6fc"></path><path d="M0 -142C15.1 -139.4 30.2 -136.8 41.6 -128.2C53.1 -119.5 61 -104.6 67.9 -93.4C74.8 -82.2 80.7 -74.7 93.4 -67.9C106.2 -61.1 125.8 -55.1 135 -43.9C144.2 -32.7 143.1 -16.3 142 0L0 0Z" fill="#e0e5f7"></path><path d="M0 -121.7C12.9 -119.5 25.9 -117.3 35.7 -109.8C45.5 -102.4 52.3 -89.7 58.2 -80.1C64.1 -70.5 69.2 -64 80.1 -58.2C91 -52.4 107.8 -47.2 115.7 -37.6C123.6 -28 122.7 -14 121.7 0L0 0Z" fill="#cbd4f2"></path><path d="M0 -101.4C10.8 -99.6 21.5 -97.7 29.7 -91.5C37.9 -85.3 43.6 -74.7 48.5 -66.7C53.4 -58.7 57.6 -53.3 66.7 -48.5C75.9 -43.6 89.9 -39.3 96.4 -31.3C103 -23.3 102.2 -11.7 101.4 0L0 0Z" fill="#b5c4ec"></path><path d="M0 -81.1C8.6 -79.7 17.2 -78.2 23.8 -73.2C30.4 -68.3 34.9 -59.8 38.8 -53.4C42.7 -47 46.1 -42.7 53.4 -38.8C60.7 -34.9 71.9 -31.5 77.2 -25.1C82.4 -18.7 81.8 -9.3 81.1 0L0 0Z" fill="#9fb3e6"></path><path d="M0 -60.8C6.5 -59.7 12.9 -58.6 17.8 -54.9C22.8 -51.2 26.1 -44.8 29.1 -40C32 -35.2 34.6 -32 40 -29.1C45.5 -26.2 53.9 -23.6 57.9 -18.8C61.8 -14 61.3 -7 60.8 0L0 0Z" fill="#88a3e1"></path><path d="M0 -40.6C4.3 -39.8 8.6 -39.1 11.9 -36.6C15.2 -34.1 17.4 -29.9 19.4 -26.7C21.4 -23.5 23.1 -21.3 26.7 -19.4C30.3 -17.5 35.9 -15.7 38.6 -12.5C41.2 -9.3 40.9 -4.7 40.6 0L0 0Z" fill="#6f94db"></path><path d="M0 -20.3C2.2 -19.9 4.3 -19.5 5.9 -18.3C7.6 -17.1 8.7 -14.9 9.7 -13.3C10.7 -11.7 11.5 -10.7 13.3 -9.7C15.2 -8.7 18 -7.9 19.3 -6.3C20.6 -4.7 20.4 -2.3 20.3 0L0 0Z" fill="#618cd8"></path></g></svg>