<?xml version="1.0" encoding="utf-8"?>
<!-- Generator: Adobe Illustrator 27.5.0, SVG Export Plug-In . SVG Version: 6.00 Build 0)  -->
<svg version="1.1" xmlns="http://www.w3.org/2000/svg" xmlns:xlink="http://www.w3.org/1999/xlink" x="0px" y="0px"
	 viewBox="0 0 500 500" style="enable-background:new 0 0 500 500;" xml:space="preserve">
<g id="Background_Complete">
	<g>
		<rect y="382.398" style="fill:#EBEBEB;" width="500" height="0.25"/>
		<rect x="416.779" y="398.494" style="fill:#EBEBEB;" width="33.122" height="0.25"/>
		<rect x="322.527" y="401.208" style="fill:#EBEBEB;" width="8.693" height="0.25"/>
		<rect x="396.586" y="389.208" style="fill:#EBEBEB;" width="19.192" height="0.25"/>
		<rect x="52.459" y="390.888" style="fill:#EBEBEB;" width="43.193" height="0.25"/>
		<rect x="104.556" y="390.888" style="fill:#EBEBEB;" width="6.333" height="0.25"/>
		<rect x="131.471" y="395.111" style="fill:#EBEBEB;" width="93.676" height="0.25"/>
		<path style="fill:#EBEBEB;" d="M237.014,337.8H43.915c-3.147,0-5.708-2.561-5.708-5.708V60.66c0-3.147,2.561-5.708,5.708-5.708
			h193.099c3.146,0,5.707,2.561,5.707,5.708v271.432C242.721,335.239,240.16,337.8,237.014,337.8z M43.915,55.203
			c-3.01,0-5.458,2.448-5.458,5.458v271.432c0,3.01,2.448,5.458,5.458,5.458h193.099c3.009,0,5.457-2.448,5.457-5.458V60.66
			c0-3.009-2.448-5.458-5.457-5.458H43.915z"/>
		<path style="fill:#EBEBEB;" d="M453.31,337.8H260.212c-3.147,0-5.707-2.561-5.707-5.708V60.66c0-3.147,2.561-5.708,5.707-5.708
			H453.31c3.148,0,5.708,2.561,5.708,5.708v271.432C459.019,335.239,456.458,337.8,453.31,337.8z M260.212,55.203
			c-3.009,0-5.457,2.448-5.457,5.458v271.432c0,3.01,2.448,5.458,5.457,5.458H453.31c3.01,0,5.458-2.448,5.458-5.458V60.66
			c0-3.009-2.448-5.458-5.458-5.458H260.212z"/>
	</g>
	<g>
		<g>
			<rect x="69.107" y="117.051" style="fill:#E0E0E0;" width="188.267" height="181.474"/>
			<rect x="72.128" y="120.347" style="fill:#F5F5F5;" width="185.246" height="175.014"/>
			<g>
				<polygon style="fill:#E6E6E6;" points="73.495,252.974 73.495,200.333 78.965,200.333 78.965,193.381 91.27,187.624 
					91.27,180.508 93.321,180.508 93.321,200.333 95.372,200.333 95.372,252.974 98.107,252.974 98.107,225.628 104.26,225.628 
					104.26,211.272 106.311,211.272 106.311,252.974 111.096,252.974 111.096,237.25 114.514,237.25 114.514,233.148 
					122.034,233.148 122.034,218.792 126.136,218.792 126.136,209.221 130.922,209.221 130.922,194.864 132.973,194.864 
					132.973,209.221 137.758,209.221 137.758,218.792 141.86,218.792 141.86,233.148 149.38,233.148 149.38,237.25 152.798,237.25 
					152.798,252.974 156.9,252.974 156.9,233.148 164.42,233.148 164.42,189.395 166.471,189.395 166.471,184.609 182.879,184.609 
					182.879,189.395 186.297,189.395 186.297,220.843 199.97,220.843 199.97,224.261 204.756,224.261 204.756,226.312 
					199.97,226.312 199.97,238.617 214.327,238.617 214.327,197.599 217.061,197.599 217.061,189.395 223.898,189.395 
					223.898,157.947 225.949,157.947 225.949,189.395 230.734,189.395 230.734,197.599 257.374,197.599 257.374,295.36 
					72.128,295.36 72.128,252.974 				"/>
				<g>
					<rect x="241.202" y="199.742" style="fill:#F0F0F0;" width="1.937" height="1.937"/>
					<rect x="241.202" y="202.99" style="fill:#F0F0F0;" width="1.937" height="1.937"/>
					<rect x="241.202" y="215.979" style="fill:#F0F0F0;" width="1.937" height="1.937"/>
					<rect x="241.202" y="219.226" style="fill:#F0F0F0;" width="1.937" height="1.937"/>
					<rect x="241.202" y="222.473" style="fill:#F0F0F0;" width="1.937" height="1.937"/>
					<rect x="241.202" y="232.215" style="fill:#F0F0F0;" width="1.937" height="1.937"/>
					<rect x="241.202" y="235.463" style="fill:#F0F0F0;" width="1.937" height="1.937"/>
					<rect x="238.126" y="212.731" style="fill:#F0F0F0;" width="1.937" height="1.937"/>
					<rect x="238.126" y="215.979" style="fill:#F0F0F0;" width="1.937" height="1.937"/>
					<rect x="238.126" y="219.226" style="fill:#F0F0F0;" width="1.937" height="1.937"/>
					<rect x="238.126" y="222.473" style="fill:#F0F0F0;" width="1.937" height="1.937"/>
					<rect x="238.126" y="225.721" style="fill:#F0F0F0;" width="1.937" height="1.937"/>
					<rect x="238.126" y="232.215" style="fill:#F0F0F0;" width="1.937" height="1.937"/>
					<rect x="238.126" y="235.463" style="fill:#F0F0F0;" width="1.937" height="1.937"/>
					<rect x="235.049" y="199.742" style="fill:#F0F0F0;" width="1.937" height="1.937"/>
					<rect x="235.049" y="202.99" style="fill:#F0F0F0;" width="1.937" height="1.937"/>
					<rect x="235.049" y="206.237" style="fill:#F0F0F0;" width="1.937" height="1.937"/>
					<rect x="235.049" y="209.484" style="fill:#F0F0F0;" width="1.937" height="1.937"/>
					<rect x="235.049" y="212.731" style="fill:#F0F0F0;" width="1.937" height="1.937"/>
					<rect x="235.049" y="215.979" style="fill:#F0F0F0;" width="1.937" height="1.937"/>
					<rect x="235.049" y="219.226" style="fill:#F0F0F0;" width="1.937" height="1.937"/>
					<rect x="235.049" y="222.473" style="fill:#F0F0F0;" width="1.937" height="1.937"/>
					<rect x="235.049" y="225.721" style="fill:#F0F0F0;" width="1.937" height="1.937"/>
					<rect x="235.049" y="228.968" style="fill:#F0F0F0;" width="1.937" height="1.937"/>
					<rect x="235.049" y="235.463" style="fill:#F0F0F0;" width="1.937" height="1.937"/>
					<rect x="231.973" y="199.742" style="fill:#F0F0F0;" width="1.937" height="1.937"/>
					<rect x="231.973" y="202.99" style="fill:#F0F0F0;" width="1.937" height="1.937"/>
					<rect x="231.973" y="206.237" style="fill:#F0F0F0;" width="1.937" height="1.937"/>
					<rect x="231.973" y="209.484" style="fill:#F0F0F0;" width="1.937" height="1.937"/>
					<rect x="231.973" y="212.731" style="fill:#F0F0F0;" width="1.937" height="1.937"/>
					<rect x="231.973" y="215.979" style="fill:#F0F0F0;" width="1.937" height="1.937"/>
					<rect x="231.973" y="219.226" style="fill:#F0F0F0;" width="1.937" height="1.937"/>
					<rect x="231.973" y="248.452" style="fill:#F0F0F0;" width="1.937" height="1.937"/>
					<rect x="228.896" y="199.742" style="fill:#F0F0F0;" width="1.937" height="1.937"/>
					<rect x="228.896" y="202.99" style="fill:#F0F0F0;" width="1.937" height="1.937"/>
					<rect x="228.896" y="206.237" style="fill:#F0F0F0;" width="1.937" height="1.937"/>
					<rect x="228.896" y="209.484" style="fill:#F0F0F0;" width="1.937" height="1.937"/>
					<rect x="228.896" y="212.731" style="fill:#F0F0F0;" width="1.937" height="1.937"/>
					<rect x="228.896" y="215.979" style="fill:#F0F0F0;" width="1.937" height="1.937"/>
					<rect x="228.896" y="219.226" style="fill:#F0F0F0;" width="1.937" height="1.937"/>
					<rect x="228.896" y="222.473" style="fill:#F0F0F0;" width="1.937" height="1.937"/>
					<rect x="228.896" y="241.957" style="fill:#F0F0F0;" width="1.937" height="1.937"/>
					<rect x="228.896" y="245.205" style="fill:#F0F0F0;" width="1.937" height="1.937"/>
					<rect x="228.896" y="248.452" style="fill:#F0F0F0;" width="1.937" height="1.937"/>
					<rect x="228.896" y="251.699" style="fill:#F0F0F0;" width="1.937" height="1.937"/>
					<rect x="228.896" y="264.689" style="fill:#F0F0F0;" width="1.937" height="1.937"/>
					<rect x="225.82" y="199.742" style="fill:#F0F0F0;" width="1.937" height="1.937"/>
					<rect x="225.82" y="202.99" style="fill:#F0F0F0;" width="1.937" height="1.937"/>
					<rect x="225.82" y="206.237" style="fill:#F0F0F0;" width="1.937" height="1.937"/>
					<rect x="225.82" y="209.484" style="fill:#F0F0F0;" width="1.937" height="1.937"/>
					<rect x="225.82" y="212.731" style="fill:#F0F0F0;" width="1.937" height="1.937"/>
					<rect x="225.82" y="215.979" style="fill:#F0F0F0;" width="1.937" height="1.937"/>
					<rect x="225.82" y="219.226" style="fill:#F0F0F0;" width="1.937" height="1.937"/>
					<rect x="225.82" y="222.473" style="fill:#F0F0F0;" width="1.937" height="1.937"/>
					<rect x="225.82" y="225.721" style="fill:#F0F0F0;" width="1.937" height="1.937"/>
					<rect x="225.82" y="228.968" style="fill:#F0F0F0;" width="1.937" height="1.937"/>
					<rect x="225.82" y="238.71" style="fill:#F0F0F0;" width="1.937" height="1.937"/>
					<rect x="225.82" y="241.957" style="fill:#F0F0F0;" width="1.937" height="1.937"/>
					<rect x="225.82" y="245.205" style="fill:#F0F0F0;" width="1.937" height="1.937"/>
					<rect x="225.82" y="248.452" style="fill:#F0F0F0;" width="1.937" height="1.937"/>
					<rect x="225.82" y="251.699" style="fill:#F0F0F0;" width="1.937" height="1.937"/>
					<rect x="225.82" y="264.689" style="fill:#F0F0F0;" width="1.937" height="1.937"/>
					<rect x="222.743" y="199.742" style="fill:#F0F0F0;" width="1.937" height="1.937"/>
					<rect x="222.743" y="202.99" style="fill:#F0F0F0;" width="1.937" height="1.937"/>
					<rect x="222.743" y="206.237" style="fill:#F0F0F0;" width="1.937" height="1.937"/>
					<rect x="222.743" y="209.484" style="fill:#F0F0F0;" width="1.937" height="1.937"/>
					<rect x="222.743" y="212.731" style="fill:#F0F0F0;" width="1.937" height="1.937"/>
					<rect x="222.743" y="215.979" style="fill:#F0F0F0;" width="1.937" height="1.937"/>
					<rect x="222.743" y="219.226" style="fill:#F0F0F0;" width="1.937" height="1.937"/>
					<rect x="222.743" y="222.473" style="fill:#F0F0F0;" width="1.937" height="1.937"/>
					<rect x="222.743" y="225.721" style="fill:#F0F0F0;" width="1.937" height="1.937"/>
					<rect x="222.743" y="228.968" style="fill:#F0F0F0;" width="1.937" height="1.937"/>
					<rect x="222.743" y="232.215" style="fill:#F0F0F0;" width="1.937" height="1.937"/>
					<rect x="222.743" y="235.463" style="fill:#F0F0F0;" width="1.937" height="1.937"/>
					<rect x="222.743" y="238.71" style="fill:#F0F0F0;" width="1.937" height="1.937"/>
					<rect x="222.743" y="241.957" style="fill:#F0F0F0;" width="1.937" height="1.937"/>
					<rect x="222.743" y="245.205" style="fill:#F0F0F0;" width="1.937" height="1.937"/>
					<rect x="222.743" y="248.452" style="fill:#F0F0F0;" width="1.937" height="1.937"/>
					<rect x="222.743" y="251.699" style="fill:#F0F0F0;" width="1.937" height="1.937"/>
					<rect x="222.743" y="254.947" style="fill:#F0F0F0;" width="1.937" height="1.937"/>
					<rect x="219.667" y="199.742" style="fill:#F0F0F0;" width="1.937" height="1.937"/>
					<rect x="219.667" y="202.99" style="fill:#F0F0F0;" width="1.937" height="1.937"/>
					<rect x="219.667" y="206.237" style="fill:#F0F0F0;" width="1.937" height="1.937"/>
					<rect x="219.667" y="209.484" style="fill:#F0F0F0;" width="1.937" height="1.937"/>
					<rect x="219.667" y="212.731" style="fill:#F0F0F0;" width="1.937" height="1.937"/>
					<rect x="219.667" y="215.979" style="fill:#F0F0F0;" width="1.937" height="1.937"/>
					<rect x="219.667" y="219.226" style="fill:#F0F0F0;" width="1.937" height="1.937"/>
					<rect x="219.667" y="222.473" style="fill:#F0F0F0;" width="1.937" height="1.937"/>
					<rect x="219.667" y="225.721" style="fill:#F0F0F0;" width="1.937" height="1.937"/>
					<rect x="219.667" y="228.968" style="fill:#F0F0F0;" width="1.937" height="1.937"/>
					<rect x="219.667" y="238.71" style="fill:#F0F0F0;" width="1.937" height="1.937"/>
					<rect x="219.667" y="241.957" style="fill:#F0F0F0;" width="1.937" height="1.937"/>
					<rect x="219.667" y="245.205" style="fill:#F0F0F0;" width="1.937" height="1.937"/>
					<rect x="219.667" y="248.452" style="fill:#F0F0F0;" width="1.937" height="1.937"/>
					<rect x="216.591" y="199.742" style="fill:#F0F0F0;" width="1.937" height="1.937"/>
					<rect x="216.591" y="202.99" style="fill:#F0F0F0;" width="1.937" height="1.937"/>
					<rect x="216.591" y="206.237" style="fill:#F0F0F0;" width="1.937" height="1.937"/>
					<rect x="216.591" y="209.484" style="fill:#F0F0F0;" width="1.937" height="1.937"/>
					<rect x="216.591" y="212.731" style="fill:#F0F0F0;" width="1.937" height="1.937"/>
					<rect x="216.591" y="215.979" style="fill:#F0F0F0;" width="1.937" height="1.937"/>
					<rect x="216.591" y="219.226" style="fill:#F0F0F0;" width="1.937" height="1.937"/>
					<rect x="216.591" y="222.473" style="fill:#F0F0F0;" width="1.937" height="1.937"/>
					<rect x="216.591" y="225.721" style="fill:#F0F0F0;" width="1.937" height="1.937"/>
					<rect x="216.591" y="228.968" style="fill:#F0F0F0;" width="1.937" height="1.937"/>
					<rect x="216.591" y="238.71" style="fill:#F0F0F0;" width="1.937" height="1.937"/>
					<rect x="216.591" y="241.957" style="fill:#F0F0F0;" width="1.937" height="1.937"/>
					<rect x="216.591" y="245.205" style="fill:#F0F0F0;" width="1.937" height="1.937"/>
					<rect x="181.953" y="191.311" style="fill:#F0F0F0;" width="1.937" height="1.937"/>
					<rect x="181.953" y="194.558" style="fill:#F0F0F0;" width="1.937" height="1.937"/>
					<rect x="181.953" y="197.805" style="fill:#F0F0F0;" width="1.937" height="1.937"/>
					<rect x="181.953" y="201.052" style="fill:#F0F0F0;" width="1.937" height="1.937"/>
					<rect x="181.953" y="204.3" style="fill:#F0F0F0;" width="1.937" height="1.937"/>
					<rect x="181.953" y="207.547" style="fill:#F0F0F0;" width="1.937" height="1.937"/>
					<rect x="181.953" y="210.794" style="fill:#F0F0F0;" width="1.937" height="1.937"/>
					<rect x="181.953" y="214.042" style="fill:#F0F0F0;" width="1.937" height="1.937"/>
					<rect x="181.953" y="223.784" style="fill:#F0F0F0;" width="1.937" height="1.937"/>
					<rect x="181.953" y="227.031" style="fill:#F0F0F0;" width="1.937" height="1.937"/>
					<rect x="178.876" y="191.311" style="fill:#F0F0F0;" width="1.937" height="1.937"/>
					<rect x="178.876" y="194.558" style="fill:#F0F0F0;" width="1.937" height="1.937"/>
					<rect x="178.876" y="197.805" style="fill:#F0F0F0;" width="1.937" height="1.937"/>
					<rect x="178.876" y="201.052" style="fill:#F0F0F0;" width="1.937" height="1.937"/>
					<rect x="178.876" y="204.3" style="fill:#F0F0F0;" width="1.937" height="1.937"/>
					<rect x="178.876" y="207.547" style="fill:#F0F0F0;" width="1.937" height="1.937"/>
					<rect x="178.876" y="210.794" style="fill:#F0F0F0;" width="1.937" height="1.937"/>
					<rect x="178.876" y="214.042" style="fill:#F0F0F0;" width="1.937" height="1.937"/>
					<rect x="178.876" y="227.031" style="fill:#F0F0F0;" width="1.937" height="1.937"/>
					<rect x="175.8" y="191.311" style="fill:#F0F0F0;" width="1.937" height="1.937"/>
					<rect x="175.8" y="194.558" style="fill:#F0F0F0;" width="1.937" height="1.937"/>
					<rect x="175.8" y="197.805" style="fill:#F0F0F0;" width="1.937" height="1.937"/>
					<rect x="175.8" y="201.052" style="fill:#F0F0F0;" width="1.937" height="1.937"/>
					<rect x="175.8" y="204.3" style="fill:#F0F0F0;" width="1.937" height="1.937"/>
					<rect x="175.8" y="207.547" style="fill:#F0F0F0;" width="1.937" height="1.937"/>
					<rect x="175.8" y="210.794" style="fill:#F0F0F0;" width="1.937" height="1.937"/>
					<rect x="175.8" y="214.042" style="fill:#F0F0F0;" width="1.937" height="1.937"/>
					<rect x="172.723" y="191.311" style="fill:#F0F0F0;" width="1.937" height="1.937"/>
					<rect x="172.723" y="194.558" style="fill:#F0F0F0;" width="1.937" height="1.937"/>
					<rect x="172.723" y="197.805" style="fill:#F0F0F0;" width="1.937" height="1.937"/>
					<rect x="172.723" y="201.052" style="fill:#F0F0F0;" width="1.937" height="1.937"/>
					<rect x="172.723" y="204.3" style="fill:#F0F0F0;" width="1.937" height="1.937"/>
					<rect x="172.723" y="207.547" style="fill:#F0F0F0;" width="1.937" height="1.937"/>
					<rect x="172.723" y="214.042" style="fill:#F0F0F0;" width="1.937" height="1.937"/>
					<rect x="172.723" y="217.289" style="fill:#F0F0F0;" width="1.937" height="1.937"/>
					<rect x="172.723" y="227.031" style="fill:#F0F0F0;" width="1.937" height="1.937"/>
					<rect x="172.723" y="230.278" style="fill:#F0F0F0;" width="1.937" height="1.937"/>
					<rect x="172.723" y="233.526" style="fill:#F0F0F0;" width="1.937" height="1.937"/>
					<rect x="172.723" y="236.773" style="fill:#F0F0F0;" width="1.937" height="1.937"/>
					<rect x="172.723" y="240.02" style="fill:#F0F0F0;" width="1.937" height="1.937"/>
					<rect x="172.723" y="243.268" style="fill:#F0F0F0;" width="1.937" height="1.937"/>
					<rect x="172.723" y="246.515" style="fill:#F0F0F0;" width="1.937" height="1.937"/>
					<rect x="169.647" y="191.311" style="fill:#F0F0F0;" width="1.937" height="1.937"/>
					<rect x="169.647" y="194.558" style="fill:#F0F0F0;" width="1.937" height="1.937"/>
					<rect x="169.647" y="197.805" style="fill:#F0F0F0;" width="1.937" height="1.937"/>
					<rect x="169.647" y="201.052" style="fill:#F0F0F0;" width="1.937" height="1.937"/>
					<rect x="169.647" y="204.3" style="fill:#F0F0F0;" width="1.937" height="1.937"/>
					<rect x="169.647" y="207.547" style="fill:#F0F0F0;" width="1.937" height="1.937"/>
					<rect x="169.647" y="217.289" style="fill:#F0F0F0;" width="1.937" height="1.937"/>
					<rect x="169.647" y="220.536" style="fill:#F0F0F0;" width="1.937" height="1.937"/>
					<rect x="169.647" y="223.784" style="fill:#F0F0F0;" width="1.937" height="1.937"/>
					<rect x="169.647" y="227.031" style="fill:#F0F0F0;" width="1.937" height="1.937"/>
					<rect x="169.647" y="230.278" style="fill:#F0F0F0;" width="1.937" height="1.937"/>
					<rect x="169.647" y="233.526" style="fill:#F0F0F0;" width="1.937" height="1.937"/>
					<rect x="169.647" y="236.773" style="fill:#F0F0F0;" width="1.937" height="1.937"/>
					<rect x="169.647" y="240.02" style="fill:#F0F0F0;" width="1.937" height="1.937"/>
					<rect x="169.647" y="243.268" style="fill:#F0F0F0;" width="1.937" height="1.937"/>
					<rect x="169.647" y="246.515" style="fill:#F0F0F0;" width="1.937" height="1.937"/>
					<rect x="169.647" y="249.762" style="fill:#F0F0F0;" width="1.937" height="1.937"/>
					<rect x="169.647" y="256.257" style="fill:#F0F0F0;" width="1.937" height="1.937"/>
					<rect x="166.571" y="191.311" style="fill:#F0F0F0;" width="1.937" height="1.937"/>
					<rect x="166.571" y="194.558" style="fill:#F0F0F0;" width="1.937" height="1.937"/>
					<rect x="166.571" y="197.805" style="fill:#F0F0F0;" width="1.937" height="1.937"/>
					<rect x="166.571" y="201.052" style="fill:#F0F0F0;" width="1.937" height="1.937"/>
					<rect x="166.571" y="204.3" style="fill:#F0F0F0;" width="1.937" height="1.937"/>
					<rect x="166.571" y="207.547" style="fill:#F0F0F0;" width="1.937" height="1.937"/>
					<rect x="166.571" y="217.289" style="fill:#F0F0F0;" width="1.937" height="1.937"/>
					<rect x="166.571" y="220.536" style="fill:#F0F0F0;" width="1.937" height="1.937"/>
					<rect x="166.571" y="223.784" style="fill:#F0F0F0;" width="1.937" height="1.937"/>
					<rect x="166.571" y="227.031" style="fill:#F0F0F0;" width="1.937" height="1.937"/>
					<rect x="166.571" y="236.773" style="fill:#F0F0F0;" width="1.937" height="1.937"/>
					<rect x="166.571" y="240.02" style="fill:#F0F0F0;" width="1.937" height="1.937"/>
					<rect x="166.571" y="243.268" style="fill:#F0F0F0;" width="1.937" height="1.937"/>
					<rect x="166.571" y="246.515" style="fill:#F0F0F0;" width="1.937" height="1.937"/>
					<rect x="166.571" y="249.762" style="fill:#F0F0F0;" width="1.937" height="1.937"/>
					<rect x="166.571" y="256.257" style="fill:#F0F0F0;" width="1.937" height="1.937"/>
					<rect x="166.571" y="259.504" style="fill:#F0F0F0;" width="1.937" height="1.937"/>
					<rect x="138.655" y="221.505" style="fill:#F0F0F0;" width="1.937" height="1.937"/>
					<rect x="138.655" y="224.752" style="fill:#F0F0F0;" width="1.937" height="1.937"/>
					<rect x="138.655" y="227.999" style="fill:#F0F0F0;" width="1.937" height="1.937"/>
					<rect x="138.655" y="231.247" style="fill:#F0F0F0;" width="1.937" height="1.937"/>
					<rect x="138.655" y="234.494" style="fill:#F0F0F0;" width="1.937" height="1.937"/>
					<rect x="138.655" y="237.742" style="fill:#F0F0F0;" width="1.937" height="1.937"/>
					<rect x="138.655" y="240.989" style="fill:#F0F0F0;" width="1.937" height="1.937"/>
					<rect x="138.655" y="250.731" style="fill:#F0F0F0;" width="1.937" height="1.937"/>
					<rect x="138.655" y="253.978" style="fill:#F0F0F0;" width="1.937" height="1.937"/>
					<rect x="138.655" y="257.225" style="fill:#F0F0F0;" width="1.937" height="1.937"/>
					<rect x="135.579" y="221.505" style="fill:#F0F0F0;" width="1.937" height="1.937"/>
					<rect x="135.579" y="224.752" style="fill:#F0F0F0;" width="1.937" height="1.937"/>
					<rect x="135.579" y="227.999" style="fill:#F0F0F0;" width="1.937" height="1.937"/>
					<rect x="135.579" y="231.247" style="fill:#F0F0F0;" width="1.937" height="1.937"/>
					<rect x="135.579" y="234.494" style="fill:#F0F0F0;" width="1.937" height="1.937"/>
					<rect x="135.579" y="237.742" style="fill:#F0F0F0;" width="1.937" height="1.937"/>
					<rect x="135.579" y="240.989" style="fill:#F0F0F0;" width="1.937" height="1.937"/>
					<rect x="132.502" y="221.505" style="fill:#F0F0F0;" width="1.937" height="1.937"/>
					<rect x="132.502" y="224.752" style="fill:#F0F0F0;" width="1.937" height="1.937"/>
					<rect x="132.502" y="227.999" style="fill:#F0F0F0;" width="1.937" height="1.937"/>
					<rect x="132.502" y="231.247" style="fill:#F0F0F0;" width="1.937" height="1.937"/>
					<rect x="132.502" y="234.494" style="fill:#F0F0F0;" width="1.937" height="1.937"/>
					<rect x="132.502" y="237.742" style="fill:#F0F0F0;" width="1.937" height="1.937"/>
					<rect x="132.502" y="240.989" style="fill:#F0F0F0;" width="1.937" height="1.937"/>
					<rect x="129.426" y="221.505" style="fill:#F0F0F0;" width="1.937" height="1.937"/>
					<rect x="129.426" y="224.752" style="fill:#F0F0F0;" width="1.937" height="1.937"/>
					<rect x="129.426" y="227.999" style="fill:#F0F0F0;" width="1.937" height="1.937"/>
					<rect x="129.426" y="231.247" style="fill:#F0F0F0;" width="1.937" height="1.937"/>
					<rect x="129.426" y="234.494" style="fill:#F0F0F0;" width="1.937" height="1.937"/>
					<rect x="129.426" y="237.742" style="fill:#F0F0F0;" width="1.937" height="1.937"/>
					<rect x="129.426" y="240.989" style="fill:#F0F0F0;" width="1.937" height="1.937"/>
					<rect x="129.426" y="244.236" style="fill:#F0F0F0;" width="1.937" height="1.937"/>
					<rect x="129.426" y="247.484" style="fill:#F0F0F0;" width="1.937" height="1.937"/>
					<rect x="129.426" y="250.731" style="fill:#F0F0F0;" width="1.937" height="1.937"/>
					<rect x="129.426" y="253.978" style="fill:#F0F0F0;" width="1.937" height="1.937"/>
					<rect x="126.35" y="221.505" style="fill:#F0F0F0;" width="1.937" height="1.937"/>
					<rect x="126.35" y="224.752" style="fill:#F0F0F0;" width="1.937" height="1.937"/>
					<rect x="126.35" y="227.999" style="fill:#F0F0F0;" width="1.937" height="1.937"/>
					<rect x="126.35" y="231.247" style="fill:#F0F0F0;" width="1.937" height="1.937"/>
					<rect x="126.35" y="234.494" style="fill:#F0F0F0;" width="1.937" height="1.937"/>
					<rect x="126.35" y="237.742" style="fill:#F0F0F0;" width="1.937" height="1.937"/>
					<rect x="126.35" y="240.989" style="fill:#F0F0F0;" width="1.937" height="1.937"/>
					<rect x="126.35" y="244.236" style="fill:#F0F0F0;" width="1.937" height="1.937"/>
					<rect x="126.35" y="247.484" style="fill:#F0F0F0;" width="1.937" height="1.937"/>
					<rect x="126.35" y="250.731" style="fill:#F0F0F0;" width="1.937" height="1.937"/>
					<rect x="126.35" y="253.978" style="fill:#F0F0F0;" width="1.937" height="1.937"/>
					<rect x="126.35" y="257.225" style="fill:#F0F0F0;" width="1.937" height="1.937"/>
					<rect x="126.35" y="266.967" style="fill:#F0F0F0;" width="1.937" height="1.937"/>
					<rect x="126.35" y="270.215" style="fill:#F0F0F0;" width="1.937" height="1.937"/>
					<rect x="123.273" y="221.505" style="fill:#F0F0F0;" width="1.937" height="1.937"/>
					<rect x="123.273" y="224.752" style="fill:#F0F0F0;" width="1.937" height="1.937"/>
					<rect x="123.273" y="227.999" style="fill:#F0F0F0;" width="1.937" height="1.937"/>
					<rect x="123.273" y="237.742" style="fill:#F0F0F0;" width="1.937" height="1.937"/>
					<rect x="123.273" y="240.989" style="fill:#F0F0F0;" width="1.937" height="1.937"/>
					<rect x="123.273" y="244.236" style="fill:#F0F0F0;" width="1.937" height="1.937"/>
					<rect x="123.273" y="247.484" style="fill:#F0F0F0;" width="1.937" height="1.937"/>
					<rect x="123.273" y="250.731" style="fill:#F0F0F0;" width="1.937" height="1.937"/>
					<rect x="123.273" y="253.978" style="fill:#F0F0F0;" width="1.937" height="1.937"/>
					<rect x="123.273" y="257.225" style="fill:#F0F0F0;" width="1.937" height="1.937"/>
					<rect x="123.273" y="266.967" style="fill:#F0F0F0;" width="1.937" height="1.937"/>
					<rect x="123.273" y="270.215" style="fill:#F0F0F0;" width="1.937" height="1.937"/>
					<rect x="123.273" y="273.462" style="fill:#F0F0F0;" width="1.937" height="1.937"/>
					<rect x="91.028" y="202.021" style="fill:#F0F0F0;" width="1.937" height="1.937"/>
					<rect x="91.028" y="205.268" style="fill:#F0F0F0;" width="1.937" height="1.937"/>
					<rect x="91.028" y="208.516" style="fill:#F0F0F0;" width="1.937" height="1.937"/>
					<rect x="91.028" y="211.763" style="fill:#F0F0F0;" width="1.937" height="1.937"/>
					<rect x="91.028" y="215.01" style="fill:#F0F0F0;" width="1.937" height="1.937"/>
					<rect x="91.028" y="218.258" style="fill:#F0F0F0;" width="1.937" height="1.937"/>
					<rect x="91.028" y="221.505" style="fill:#F0F0F0;" width="1.937" height="1.937"/>
					<rect x="91.028" y="224.752" style="fill:#F0F0F0;" width="1.937" height="1.937"/>
					<rect x="91.028" y="227.999" style="fill:#F0F0F0;" width="1.937" height="1.937"/>
					<rect x="91.028" y="231.247" style="fill:#F0F0F0;" width="1.937" height="1.937"/>
					<rect x="91.028" y="234.494" style="fill:#F0F0F0;" width="1.937" height="1.937"/>
					<rect x="91.028" y="237.742" style="fill:#F0F0F0;" width="1.937" height="1.937"/>
					<rect x="91.028" y="240.989" style="fill:#F0F0F0;" width="1.937" height="1.937"/>
					<rect x="91.028" y="244.236" style="fill:#F0F0F0;" width="1.937" height="1.937"/>
					<rect x="91.028" y="247.484" style="fill:#F0F0F0;" width="1.937" height="1.937"/>
					<rect x="91.028" y="250.731" style="fill:#F0F0F0;" width="1.937" height="1.937"/>
					<rect x="91.028" y="253.978" style="fill:#F0F0F0;" width="1.937" height="1.937"/>
					<rect x="91.028" y="257.225" style="fill:#F0F0F0;" width="1.937" height="1.937"/>
					<rect x="91.028" y="260.473" style="fill:#F0F0F0;" width="1.937" height="1.937"/>
					<rect x="91.028" y="263.72" style="fill:#F0F0F0;" width="1.937" height="1.937"/>
					<rect x="91.028" y="266.967" style="fill:#F0F0F0;" width="1.937" height="1.937"/>
					<rect x="91.028" y="270.215" style="fill:#F0F0F0;" width="1.937" height="1.937"/>
					<rect x="91.028" y="273.462" style="fill:#F0F0F0;" width="1.937" height="1.937"/>
					<rect x="87.951" y="202.021" style="fill:#F0F0F0;" width="1.937" height="1.937"/>
					<rect x="87.951" y="205.268" style="fill:#F0F0F0;" width="1.937" height="1.937"/>
					<rect x="87.951" y="208.516" style="fill:#F0F0F0;" width="1.937" height="1.937"/>
					<rect x="87.951" y="211.763" style="fill:#F0F0F0;" width="1.937" height="1.937"/>
					<rect x="87.951" y="215.01" style="fill:#F0F0F0;" width="1.937" height="1.937"/>
					<rect x="87.951" y="218.258" style="fill:#F0F0F0;" width="1.937" height="1.937"/>
					<rect x="87.951" y="221.505" style="fill:#F0F0F0;" width="1.937" height="1.937"/>
					<rect x="87.951" y="224.752" style="fill:#F0F0F0;" width="1.937" height="1.937"/>
					<rect x="87.951" y="227.999" style="fill:#F0F0F0;" width="1.937" height="1.937"/>
					<rect x="87.951" y="231.247" style="fill:#F0F0F0;" width="1.937" height="1.937"/>
					<rect x="87.951" y="234.494" style="fill:#F0F0F0;" width="1.937" height="1.937"/>
					<rect x="87.951" y="237.742" style="fill:#F0F0F0;" width="1.937" height="1.937"/>
					<rect x="87.951" y="240.989" style="fill:#F0F0F0;" width="1.937" height="1.937"/>
					<rect x="87.951" y="244.236" style="fill:#F0F0F0;" width="1.937" height="1.937"/>
					<rect x="87.951" y="247.484" style="fill:#F0F0F0;" width="1.937" height="1.937"/>
					<rect x="87.951" y="250.731" style="fill:#F0F0F0;" width="1.937" height="1.937"/>
					<rect x="87.951" y="253.978" style="fill:#F0F0F0;" width="1.937" height="1.937"/>
					<rect x="87.951" y="257.225" style="fill:#F0F0F0;" width="1.937" height="1.937"/>
					<rect x="87.951" y="260.473" style="fill:#F0F0F0;" width="1.937" height="1.937"/>
					<rect x="84.875" y="202.021" style="fill:#F0F0F0;" width="1.937" height="1.937"/>
					<rect x="84.875" y="205.268" style="fill:#F0F0F0;" width="1.937" height="1.937"/>
					<rect x="84.875" y="208.516" style="fill:#F0F0F0;" width="1.937" height="1.937"/>
					<rect x="84.875" y="211.763" style="fill:#F0F0F0;" width="1.937" height="1.937"/>
					<rect x="84.875" y="215.01" style="fill:#F0F0F0;" width="1.937" height="1.937"/>
					<rect x="84.875" y="218.258" style="fill:#F0F0F0;" width="1.937" height="1.937"/>
					<rect x="84.875" y="221.505" style="fill:#F0F0F0;" width="1.937" height="1.937"/>
					<rect x="84.875" y="224.752" style="fill:#F0F0F0;" width="1.937" height="1.937"/>
					<rect x="84.875" y="227.999" style="fill:#F0F0F0;" width="1.937" height="1.937"/>
					<rect x="84.875" y="231.247" style="fill:#F0F0F0;" width="1.937" height="1.937"/>
					<rect x="84.875" y="234.494" style="fill:#F0F0F0;" width="1.937" height="1.937"/>
					<rect x="84.875" y="237.742" style="fill:#F0F0F0;" width="1.937" height="1.937"/>
					<rect x="84.875" y="240.989" style="fill:#F0F0F0;" width="1.937" height="1.937"/>
					<rect x="84.875" y="244.236" style="fill:#F0F0F0;" width="1.937" height="1.937"/>
					<rect x="84.875" y="247.484" style="fill:#F0F0F0;" width="1.937" height="1.937"/>
					<rect x="84.875" y="250.731" style="fill:#F0F0F0;" width="1.937" height="1.937"/>
					<rect x="84.875" y="253.978" style="fill:#F0F0F0;" width="1.937" height="1.937"/>
					<rect x="84.875" y="257.225" style="fill:#F0F0F0;" width="1.937" height="1.937"/>
					<rect x="84.875" y="260.473" style="fill:#F0F0F0;" width="1.937" height="1.937"/>
					<rect x="81.798" y="202.021" style="fill:#F0F0F0;" width="1.937" height="1.937"/>
					<rect x="81.798" y="205.268" style="fill:#F0F0F0;" width="1.937" height="1.937"/>
					<rect x="81.798" y="208.516" style="fill:#F0F0F0;" width="1.937" height="1.937"/>
					<rect x="81.798" y="211.763" style="fill:#F0F0F0;" width="1.937" height="1.937"/>
					<rect x="81.798" y="215.01" style="fill:#F0F0F0;" width="1.937" height="1.937"/>
					<rect x="81.798" y="218.258" style="fill:#F0F0F0;" width="1.937" height="1.937"/>
					<rect x="81.798" y="221.505" style="fill:#F0F0F0;" width="1.937" height="1.937"/>
					<rect x="81.798" y="224.752" style="fill:#F0F0F0;" width="1.937" height="1.937"/>
					<rect x="81.798" y="227.999" style="fill:#F0F0F0;" width="1.937" height="1.937"/>
					<rect x="81.798" y="231.247" style="fill:#F0F0F0;" width="1.937" height="1.937"/>
					<rect x="81.798" y="234.494" style="fill:#F0F0F0;" width="1.937" height="1.937"/>
					<rect x="81.798" y="237.742" style="fill:#F0F0F0;" width="1.937" height="1.937"/>
					<rect x="81.798" y="240.989" style="fill:#F0F0F0;" width="1.937" height="1.937"/>
					<rect x="81.798" y="244.236" style="fill:#F0F0F0;" width="1.937" height="1.937"/>
					<rect x="81.798" y="247.484" style="fill:#F0F0F0;" width="1.937" height="1.937"/>
					<rect x="78.722" y="202.021" style="fill:#F0F0F0;" width="1.937" height="1.937"/>
					<rect x="78.722" y="205.268" style="fill:#F0F0F0;" width="1.937" height="1.937"/>
					<rect x="78.722" y="208.516" style="fill:#F0F0F0;" width="1.937" height="1.937"/>
					<rect x="78.722" y="211.763" style="fill:#F0F0F0;" width="1.937" height="1.937"/>
					<rect x="78.722" y="215.01" style="fill:#F0F0F0;" width="1.937" height="1.937"/>
					<rect x="78.722" y="218.258" style="fill:#F0F0F0;" width="1.937" height="1.937"/>
					<rect x="78.722" y="221.505" style="fill:#F0F0F0;" width="1.937" height="1.937"/>
					<rect x="78.722" y="224.752" style="fill:#F0F0F0;" width="1.937" height="1.937"/>
					<rect x="78.722" y="227.999" style="fill:#F0F0F0;" width="1.937" height="1.937"/>
					<rect x="78.722" y="231.247" style="fill:#F0F0F0;" width="1.937" height="1.937"/>
					<rect x="78.722" y="234.494" style="fill:#F0F0F0;" width="1.937" height="1.937"/>
					<rect x="78.722" y="237.742" style="fill:#F0F0F0;" width="1.937" height="1.937"/>
					<rect x="78.722" y="240.989" style="fill:#F0F0F0;" width="1.937" height="1.937"/>
					<rect x="75.646" y="202.021" style="fill:#F0F0F0;" width="1.937" height="1.937"/>
					<rect x="75.646" y="205.268" style="fill:#F0F0F0;" width="1.937" height="1.937"/>
					<rect x="75.646" y="208.516" style="fill:#F0F0F0;" width="1.937" height="1.937"/>
					<rect x="75.646" y="211.763" style="fill:#F0F0F0;" width="1.937" height="1.937"/>
					<rect x="75.646" y="215.01" style="fill:#F0F0F0;" width="1.937" height="1.937"/>
					<rect x="75.646" y="218.258" style="fill:#F0F0F0;" width="1.937" height="1.937"/>
					<rect x="75.646" y="221.505" style="fill:#F0F0F0;" width="1.937" height="1.937"/>
					<rect x="75.646" y="224.752" style="fill:#F0F0F0;" width="1.937" height="1.937"/>
					<rect x="75.646" y="227.999" style="fill:#F0F0F0;" width="1.937" height="1.937"/>
					<rect x="75.646" y="231.247" style="fill:#F0F0F0;" width="1.937" height="1.937"/>
					<rect x="75.646" y="234.494" style="fill:#F0F0F0;" width="1.937" height="1.937"/>
					<rect x="75.646" y="237.742" style="fill:#F0F0F0;" width="1.937" height="1.937"/>
					<rect x="255.217" y="201.052" style="fill:#F0F0F0;" width="1.937" height="1.937"/>
					<rect x="255.217" y="204.3" style="fill:#F0F0F0;" width="1.937" height="1.937"/>
					<rect x="255.217" y="207.547" style="fill:#F0F0F0;" width="1.937" height="1.937"/>
					<rect x="255.217" y="210.794" style="fill:#F0F0F0;" width="1.937" height="1.937"/>
					<rect x="255.217" y="214.042" style="fill:#F0F0F0;" width="1.937" height="1.937"/>
					<rect x="255.217" y="217.289" style="fill:#F0F0F0;" width="1.937" height="1.937"/>
					<rect x="255.217" y="220.536" style="fill:#F0F0F0;" width="1.937" height="1.937"/>
					<rect x="255.217" y="223.784" style="fill:#F0F0F0;" width="1.937" height="1.937"/>
					<rect x="255.217" y="227.031" style="fill:#F0F0F0;" width="1.937" height="1.937"/>
					<rect x="255.217" y="230.278" style="fill:#F0F0F0;" width="1.937" height="1.937"/>
					<rect x="255.217" y="233.526" style="fill:#F0F0F0;" width="1.937" height="1.937"/>
					<rect x="255.217" y="236.773" style="fill:#F0F0F0;" width="1.937" height="1.937"/>
					<rect x="255.217" y="240.02" style="fill:#F0F0F0;" width="1.937" height="1.937"/>
					<rect x="255.217" y="243.268" style="fill:#F0F0F0;" width="1.937" height="1.937"/>
					<rect x="255.217" y="246.515" style="fill:#F0F0F0;" width="1.937" height="1.937"/>
					<rect x="255.217" y="249.762" style="fill:#F0F0F0;" width="1.937" height="1.937"/>
					<rect x="255.217" y="253.01" style="fill:#F0F0F0;" width="1.937" height="1.937"/>
					<rect x="255.217" y="259.504" style="fill:#F0F0F0;" width="1.937" height="1.937"/>
					<rect x="255.217" y="262.751" style="fill:#F0F0F0;" width="1.937" height="1.937"/>
					<rect x="255.217" y="265.999" style="fill:#F0F0F0;" width="1.937" height="1.937"/>
					<rect x="255.217" y="269.246" style="fill:#F0F0F0;" width="1.937" height="1.937"/>
					<rect x="255.217" y="272.493" style="fill:#F0F0F0;" width="1.937" height="1.937"/>
					<rect x="252.14" y="201.052" style="fill:#F0F0F0;" width="1.937" height="1.937"/>
					<rect x="252.14" y="204.3" style="fill:#F0F0F0;" width="1.937" height="1.937"/>
					<rect x="252.14" y="207.547" style="fill:#F0F0F0;" width="1.937" height="1.937"/>
					<rect x="252.14" y="210.794" style="fill:#F0F0F0;" width="1.937" height="1.937"/>
					<rect x="252.14" y="214.042" style="fill:#F0F0F0;" width="1.937" height="1.937"/>
					<rect x="252.14" y="217.289" style="fill:#F0F0F0;" width="1.937" height="1.937"/>
					<rect x="252.14" y="220.536" style="fill:#F0F0F0;" width="1.937" height="1.937"/>
					<rect x="252.14" y="223.784" style="fill:#F0F0F0;" width="1.937" height="1.937"/>
					<rect x="252.14" y="227.031" style="fill:#F0F0F0;" width="1.937" height="1.937"/>
					<rect x="252.14" y="230.278" style="fill:#F0F0F0;" width="1.937" height="1.937"/>
					<rect x="252.14" y="233.526" style="fill:#F0F0F0;" width="1.937" height="1.937"/>
					<rect x="252.14" y="236.773" style="fill:#F0F0F0;" width="1.937" height="1.937"/>
					<rect x="252.14" y="240.02" style="fill:#F0F0F0;" width="1.937" height="1.937"/>
					<rect x="252.14" y="243.268" style="fill:#F0F0F0;" width="1.937" height="1.937"/>
					<rect x="252.14" y="246.515" style="fill:#F0F0F0;" width="1.937" height="1.937"/>
					<rect x="252.14" y="249.762" style="fill:#F0F0F0;" width="1.937" height="1.937"/>
					<rect x="252.14" y="269.246" style="fill:#F0F0F0;" width="1.937" height="1.937"/>
					<rect x="252.14" y="272.493" style="fill:#F0F0F0;" width="1.937" height="1.937"/>
					<rect x="249.064" y="201.052" style="fill:#F0F0F0;" width="1.937" height="1.937"/>
					<rect x="249.064" y="204.3" style="fill:#F0F0F0;" width="1.937" height="1.937"/>
					<rect x="249.064" y="207.547" style="fill:#F0F0F0;" width="1.937" height="1.937"/>
					<rect x="249.064" y="210.794" style="fill:#F0F0F0;" width="1.937" height="1.937"/>
					<rect x="249.064" y="214.042" style="fill:#F0F0F0;" width="1.937" height="1.937"/>
					<rect x="249.064" y="217.289" style="fill:#F0F0F0;" width="1.937" height="1.937"/>
					<rect x="249.064" y="220.536" style="fill:#F0F0F0;" width="1.937" height="1.937"/>
					<rect x="249.064" y="223.784" style="fill:#F0F0F0;" width="1.937" height="1.937"/>
					<rect x="249.064" y="227.031" style="fill:#F0F0F0;" width="1.937" height="1.937"/>
					<rect x="249.064" y="230.278" style="fill:#F0F0F0;" width="1.937" height="1.937"/>
					<rect x="249.064" y="233.526" style="fill:#F0F0F0;" width="1.937" height="1.937"/>
					<rect x="249.064" y="236.773" style="fill:#F0F0F0;" width="1.937" height="1.937"/>
					<rect x="249.064" y="240.02" style="fill:#F0F0F0;" width="1.937" height="1.937"/>
					<rect x="249.064" y="243.268" style="fill:#F0F0F0;" width="1.937" height="1.937"/>
					<rect x="249.064" y="246.515" style="fill:#F0F0F0;" width="1.937" height="1.937"/>
					<rect x="249.064" y="249.762" style="fill:#F0F0F0;" width="1.937" height="1.937"/>
					<rect x="249.064" y="256.257" style="fill:#F0F0F0;" width="1.937" height="1.937"/>
					<rect x="249.064" y="259.504" style="fill:#F0F0F0;" width="1.937" height="1.937"/>
					<rect x="249.064" y="262.751" style="fill:#F0F0F0;" width="1.937" height="1.937"/>
					<rect x="249.064" y="265.999" style="fill:#F0F0F0;" width="1.937" height="1.937"/>
					<rect x="249.064" y="272.493" style="fill:#F0F0F0;" width="1.937" height="1.937"/>
					<rect x="195.398" y="223.784" style="fill:#F0F0F0;" width="1.937" height="1.937"/>
					<rect x="195.398" y="227.031" style="fill:#F0F0F0;" width="1.937" height="1.937"/>
					<rect x="195.398" y="230.278" style="fill:#F0F0F0;" width="1.937" height="1.937"/>
					<rect x="195.398" y="233.526" style="fill:#F0F0F0;" width="1.937" height="1.937"/>
					<rect x="195.398" y="236.773" style="fill:#F0F0F0;" width="1.937" height="1.937"/>
					<rect x="195.398" y="240.02" style="fill:#F0F0F0;" width="1.937" height="1.937"/>
					<rect x="195.398" y="243.268" style="fill:#F0F0F0;" width="1.937" height="1.937"/>
					<rect x="195.398" y="246.515" style="fill:#F0F0F0;" width="1.937" height="1.937"/>
					<rect x="195.398" y="249.762" style="fill:#F0F0F0;" width="1.937" height="1.937"/>
					<rect x="195.398" y="253.01" style="fill:#F0F0F0;" width="1.937" height="1.937"/>
					<rect x="195.398" y="256.257" style="fill:#F0F0F0;" width="1.937" height="1.937"/>
					<rect x="195.398" y="259.504" style="fill:#F0F0F0;" width="1.937" height="1.937"/>
					<rect x="195.398" y="262.751" style="fill:#F0F0F0;" width="1.937" height="1.937"/>
					<rect x="195.398" y="269.246" style="fill:#F0F0F0;" width="1.937" height="1.937"/>
					<rect x="195.398" y="272.493" style="fill:#F0F0F0;" width="1.937" height="1.937"/>
					<rect x="195.398" y="275.741" style="fill:#F0F0F0;" width="1.937" height="1.937"/>
					<rect x="195.398" y="278.988" style="fill:#F0F0F0;" width="1.937" height="1.937"/>
					<rect x="195.398" y="285.483" style="fill:#F0F0F0;" width="1.937" height="1.937"/>
					<rect x="195.398" y="288.73" style="fill:#F0F0F0;" width="1.937" height="1.937"/>
					<rect x="195.398" y="291.977" style="fill:#F0F0F0;" width="1.937" height="1.937"/>
					<rect x="192.321" y="223.784" style="fill:#F0F0F0;" width="1.937" height="1.937"/>
					<rect x="192.321" y="227.031" style="fill:#F0F0F0;" width="1.937" height="1.937"/>
					<rect x="192.321" y="230.278" style="fill:#F0F0F0;" width="1.937" height="1.937"/>
					<rect x="192.321" y="233.526" style="fill:#F0F0F0;" width="1.937" height="1.937"/>
					<rect x="192.321" y="236.773" style="fill:#F0F0F0;" width="1.937" height="1.937"/>
					<rect x="192.321" y="240.02" style="fill:#F0F0F0;" width="1.937" height="1.937"/>
					<rect x="192.321" y="243.268" style="fill:#F0F0F0;" width="1.937" height="1.937"/>
					<rect x="192.321" y="246.515" style="fill:#F0F0F0;" width="1.937" height="1.937"/>
					<rect x="192.321" y="249.762" style="fill:#F0F0F0;" width="1.937" height="1.937"/>
					<rect x="192.321" y="253.01" style="fill:#F0F0F0;" width="1.937" height="1.937"/>
					<rect x="192.321" y="256.257" style="fill:#F0F0F0;" width="1.937" height="1.937"/>
					<rect x="192.321" y="259.504" style="fill:#F0F0F0;" width="1.937" height="1.937"/>
					<rect x="192.321" y="262.751" style="fill:#F0F0F0;" width="1.937" height="1.937"/>
					<rect x="192.321" y="272.493" style="fill:#F0F0F0;" width="1.937" height="1.937"/>
					<rect x="192.321" y="275.741" style="fill:#F0F0F0;" width="1.937" height="1.937"/>
					<rect x="192.321" y="282.235" style="fill:#F0F0F0;" width="1.937" height="1.937"/>
					<rect x="192.321" y="285.483" style="fill:#F0F0F0;" width="1.937" height="1.937"/>
					<rect x="192.321" y="288.73" style="fill:#F0F0F0;" width="1.937" height="1.937"/>
					<rect x="192.321" y="291.977" style="fill:#F0F0F0;" width="1.937" height="1.937"/>
					<rect x="189.245" y="223.784" style="fill:#F0F0F0;" width="1.937" height="1.937"/>
					<rect x="189.245" y="227.031" style="fill:#F0F0F0;" width="1.937" height="1.937"/>
					<rect x="189.245" y="230.278" style="fill:#F0F0F0;" width="1.937" height="1.937"/>
					<rect x="189.245" y="233.526" style="fill:#F0F0F0;" width="1.937" height="1.937"/>
					<rect x="189.245" y="236.773" style="fill:#F0F0F0;" width="1.937" height="1.937"/>
					<rect x="189.245" y="240.02" style="fill:#F0F0F0;" width="1.937" height="1.937"/>
					<rect x="189.245" y="243.268" style="fill:#F0F0F0;" width="1.937" height="1.937"/>
					<rect x="189.245" y="246.515" style="fill:#F0F0F0;" width="1.937" height="1.937"/>
					<rect x="189.245" y="249.762" style="fill:#F0F0F0;" width="1.937" height="1.937"/>
					<rect x="189.245" y="253.01" style="fill:#F0F0F0;" width="1.937" height="1.937"/>
					<rect x="189.245" y="256.257" style="fill:#F0F0F0;" width="1.937" height="1.937"/>
					<rect x="189.245" y="259.504" style="fill:#F0F0F0;" width="1.937" height="1.937"/>
					<rect x="189.245" y="262.751" style="fill:#F0F0F0;" width="1.937" height="1.937"/>
					<rect x="189.245" y="265.999" style="fill:#F0F0F0;" width="1.937" height="1.937"/>
					<rect x="189.245" y="272.493" style="fill:#F0F0F0;" width="1.937" height="1.937"/>
					<rect x="189.245" y="278.988" style="fill:#F0F0F0;" width="1.937" height="1.937"/>
					<rect x="189.245" y="282.235" style="fill:#F0F0F0;" width="1.937" height="1.937"/>
					<rect x="189.245" y="285.483" style="fill:#F0F0F0;" width="1.937" height="1.937"/>
					<rect x="189.245" y="288.73" style="fill:#F0F0F0;" width="1.937" height="1.937"/>
					<rect x="189.245" y="291.977" style="fill:#F0F0F0;" width="1.937" height="1.937"/>
					<rect x="207.931" y="242.299" style="fill:#F0F0F0;" width="1.937" height="1.937"/>
					<rect x="207.931" y="245.546" style="fill:#F0F0F0;" width="1.937" height="1.937"/>
					<rect x="207.931" y="248.794" style="fill:#F0F0F0;" width="1.937" height="1.937"/>
					<rect x="207.931" y="252.041" style="fill:#F0F0F0;" width="1.937" height="1.937"/>
					<rect x="207.931" y="255.288" style="fill:#F0F0F0;" width="1.937" height="1.937"/>
					<rect x="207.931" y="258.536" style="fill:#F0F0F0;" width="1.937" height="1.937"/>
					<rect x="207.931" y="268.278" style="fill:#F0F0F0;" width="1.937" height="1.937"/>
					<rect x="207.931" y="271.525" style="fill:#F0F0F0;" width="1.937" height="1.937"/>
					<rect x="207.931" y="274.772" style="fill:#F0F0F0;" width="1.937" height="1.937"/>
					<rect x="207.931" y="278.02" style="fill:#F0F0F0;" width="1.937" height="1.937"/>
					<rect x="207.931" y="281.267" style="fill:#F0F0F0;" width="1.937" height="1.937"/>
					<rect x="207.931" y="284.514" style="fill:#F0F0F0;" width="1.937" height="1.937"/>
					<rect x="207.931" y="287.762" style="fill:#F0F0F0;" width="1.937" height="1.937"/>
					<rect x="204.855" y="242.299" style="fill:#F0F0F0;" width="1.937" height="1.937"/>
					<rect x="204.855" y="245.546" style="fill:#F0F0F0;" width="1.937" height="1.937"/>
					<rect x="204.855" y="248.794" style="fill:#F0F0F0;" width="1.937" height="1.937"/>
					<rect x="204.855" y="252.041" style="fill:#F0F0F0;" width="1.937" height="1.937"/>
					<rect x="204.855" y="255.288" style="fill:#F0F0F0;" width="1.937" height="1.937"/>
					<rect x="204.855" y="258.536" style="fill:#F0F0F0;" width="1.937" height="1.937"/>
					<rect x="204.855" y="268.278" style="fill:#F0F0F0;" width="1.937" height="1.937"/>
					<rect x="204.855" y="271.525" style="fill:#F0F0F0;" width="1.937" height="1.937"/>
					<rect x="204.855" y="274.772" style="fill:#F0F0F0;" width="1.937" height="1.937"/>
					<rect x="204.855" y="278.02" style="fill:#F0F0F0;" width="1.937" height="1.937"/>
					<rect x="204.855" y="281.267" style="fill:#F0F0F0;" width="1.937" height="1.937"/>
					<rect x="204.855" y="284.514" style="fill:#F0F0F0;" width="1.937" height="1.937"/>
					<rect x="204.855" y="291.009" style="fill:#F0F0F0;" width="1.937" height="1.937"/>
					<rect x="102.65" y="227.999" style="fill:#F0F0F0;" width="1.937" height="1.937"/>
					<rect x="102.65" y="231.247" style="fill:#F0F0F0;" width="1.937" height="1.937"/>
					<rect x="102.65" y="234.494" style="fill:#F0F0F0;" width="1.937" height="1.937"/>
					<rect x="102.65" y="237.742" style="fill:#F0F0F0;" width="1.937" height="1.937"/>
					<rect x="102.65" y="240.989" style="fill:#F0F0F0;" width="1.937" height="1.937"/>
					<rect x="102.65" y="244.236" style="fill:#F0F0F0;" width="1.937" height="1.937"/>
					<rect x="102.65" y="247.484" style="fill:#F0F0F0;" width="1.937" height="1.937"/>
					<rect x="102.65" y="250.731" style="fill:#F0F0F0;" width="1.937" height="1.937"/>
					<rect x="102.65" y="253.978" style="fill:#F0F0F0;" width="1.937" height="1.937"/>
					<rect x="102.65" y="257.225" style="fill:#F0F0F0;" width="1.937" height="1.937"/>
					<rect x="102.65" y="260.473" style="fill:#F0F0F0;" width="1.937" height="1.937"/>
					<rect x="102.65" y="266.967" style="fill:#F0F0F0;" width="1.937" height="1.937"/>
					<rect x="102.65" y="270.215" style="fill:#F0F0F0;" width="1.937" height="1.937"/>
					<rect x="102.65" y="273.462" style="fill:#F0F0F0;" width="1.937" height="1.937"/>
					<rect x="102.65" y="276.709" style="fill:#F0F0F0;" width="1.937" height="1.937"/>
					<rect x="102.65" y="279.957" style="fill:#F0F0F0;" width="1.937" height="1.937"/>
					<rect x="102.65" y="283.204" style="fill:#F0F0F0;" width="1.937" height="1.937"/>
					<rect x="102.65" y="286.451" style="fill:#F0F0F0;" width="1.937" height="1.937"/>
					<rect x="102.65" y="289.699" style="fill:#F0F0F0;" width="1.937" height="1.937"/>
					<rect x="99.573" y="227.999" style="fill:#F0F0F0;" width="1.937" height="1.937"/>
					<rect x="99.573" y="231.247" style="fill:#F0F0F0;" width="1.937" height="1.937"/>
					<rect x="99.573" y="234.494" style="fill:#F0F0F0;" width="1.937" height="1.937"/>
					<rect x="99.573" y="237.742" style="fill:#F0F0F0;" width="1.937" height="1.937"/>
					<rect x="99.573" y="240.989" style="fill:#F0F0F0;" width="1.937" height="1.937"/>
					<rect x="99.573" y="244.236" style="fill:#F0F0F0;" width="1.937" height="1.937"/>
					<rect x="99.573" y="247.484" style="fill:#F0F0F0;" width="1.937" height="1.937"/>
					<rect x="99.573" y="250.731" style="fill:#F0F0F0;" width="1.937" height="1.937"/>
					<rect x="99.573" y="253.978" style="fill:#F0F0F0;" width="1.937" height="1.937"/>
					<rect x="99.573" y="257.225" style="fill:#F0F0F0;" width="1.937" height="1.937"/>
					<rect x="99.573" y="260.473" style="fill:#F0F0F0;" width="1.937" height="1.937"/>
					<rect x="99.573" y="263.72" style="fill:#F0F0F0;" width="1.937" height="1.937"/>
					<rect x="99.573" y="266.967" style="fill:#F0F0F0;" width="1.937" height="1.937"/>
					<rect x="99.573" y="270.215" style="fill:#F0F0F0;" width="1.937" height="1.937"/>
					<rect x="99.573" y="273.462" style="fill:#F0F0F0;" width="1.937" height="1.937"/>
					<rect x="99.573" y="276.709" style="fill:#F0F0F0;" width="1.937" height="1.937"/>
					<rect x="99.573" y="279.957" style="fill:#F0F0F0;" width="1.937" height="1.937"/>
					<rect x="99.573" y="283.204" style="fill:#F0F0F0;" width="1.937" height="1.937"/>
					<rect x="99.573" y="286.451" style="fill:#F0F0F0;" width="1.937" height="1.937"/>
					<rect x="99.573" y="289.699" style="fill:#F0F0F0;" width="1.937" height="1.937"/>
					<rect x="117.804" y="240.647" style="fill:#F0F0F0;" width="1.937" height="1.937"/>
					<rect x="117.804" y="243.894" style="fill:#F0F0F0;" width="1.937" height="1.937"/>
					<rect x="117.804" y="247.142" style="fill:#F0F0F0;" width="1.937" height="1.937"/>
					<rect x="117.804" y="250.389" style="fill:#F0F0F0;" width="1.937" height="1.937"/>
					<rect x="117.804" y="253.636" style="fill:#F0F0F0;" width="1.937" height="1.937"/>
					<rect x="117.804" y="256.884" style="fill:#F0F0F0;" width="1.937" height="1.937"/>
					<rect x="117.804" y="260.131" style="fill:#F0F0F0;" width="1.937" height="1.937"/>
					<rect x="117.804" y="263.378" style="fill:#F0F0F0;" width="1.937" height="1.937"/>
					<rect x="117.804" y="266.625" style="fill:#F0F0F0;" width="1.937" height="1.937"/>
					<rect x="117.804" y="269.873" style="fill:#F0F0F0;" width="1.937" height="1.937"/>
					<rect x="114.727" y="240.647" style="fill:#F0F0F0;" width="1.937" height="1.937"/>
					<rect x="114.727" y="243.894" style="fill:#F0F0F0;" width="1.937" height="1.937"/>
					<rect x="114.727" y="247.142" style="fill:#F0F0F0;" width="1.937" height="1.937"/>
					<rect x="114.727" y="250.389" style="fill:#F0F0F0;" width="1.937" height="1.937"/>
					<rect x="114.727" y="253.636" style="fill:#F0F0F0;" width="1.937" height="1.937"/>
					<rect x="114.727" y="256.884" style="fill:#F0F0F0;" width="1.937" height="1.937"/>
					<rect x="114.727" y="260.131" style="fill:#F0F0F0;" width="1.937" height="1.937"/>
					<rect x="114.727" y="263.378" style="fill:#F0F0F0;" width="1.937" height="1.937"/>
					<rect x="114.727" y="266.625" style="fill:#F0F0F0;" width="1.937" height="1.937"/>
				</g>
			</g>
			<g>
				<rect x="131.718" y="117.411" style="fill:#E0E0E0;" width="3.252" height="181.114"/>
				<rect x="192.875" y="117.411" style="fill:#E0E0E0;" width="3.251" height="181.114"/>
				<rect x="254.032" y="117.411" style="fill:#E0E0E0;" width="3.251" height="181.114"/>
			</g>
		</g>
		<g>
			<circle style="fill:#E0E0E0;" cx="365.519" cy="115.95" r="14.168"/>
			<circle style="fill:#F0F0F0;" cx="365.519" cy="115.95" r="12.046"/>
			
				<polyline style="fill:#F0F0F0;stroke:#E0E0E0;stroke-width:2;stroke-linecap:round;stroke-linejoin:round;stroke-miterlimit:10;" points="
				364.951,107.686 364.951,116.107 359.37,112.949 			"/>
		</g>
		<g>
			
				<rect x="320.669" y="126.341" transform="matrix(-1.836970e-16 1 -1 -1.836970e-16 553.2366 -181.002)" style="fill:#E0E0E0;" width="92.901" height="119.553"/>
			
				<rect x="309" y="141.324" transform="matrix(-1 -1.224647e-16 1.224647e-16 -1 734.2386 372.2348)" style="fill:#EBEBEB;" width="116.239" height="89.587"/>
			
				<rect x="401.913" y="152.331" transform="matrix(-1 -1.224647e-16 1.224647e-16 -1 817.374 323.8123)" style="fill:#F5F5F5;" width="13.548" height="19.15"/>
			
				<rect x="384.269" y="157.985" transform="matrix(-1 -1.224647e-16 1.224647e-16 -1 782.7953 336.4668)" style="fill:#F5F5F5;" width="14.257" height="20.497"/>
			
				<rect x="401.558" y="200.539" transform="matrix(-0.9915 0.1304 -0.1304 -0.9915 841.376 366.4698)" style="fill:#F5F5F5;" width="14.257" height="20.497"/>
			
				<rect x="365.519" y="199.697" transform="matrix(-1 -1.224647e-16 1.224647e-16 -1 745.295 419.8913)" style="fill:#F5F5F5;" width="14.257" height="20.497"/>
			
				<rect x="382.557" y="197.54" transform="matrix(-1 -1.224647e-16 1.224647e-16 -1 779.372 415.5764)" style="fill:#F5F5F5;" width="14.257" height="20.497"/>
			
				<rect x="341.005" y="153.724" transform="matrix(-1 -1.224647e-16 1.224647e-16 -1 690.8592 316.2974)" style="fill:#F5F5F5;" width="8.849" height="8.849"/>
			
				<rect x="329.439" y="154.543" transform="matrix(-0.9339 0.3574 -0.3574 -0.9339 702.4924 188.1048)" style="fill:#F5F5F5;" width="8.849" height="8.849"/>
			<path style="fill:#E0E0E0;" d="M345.43,154.844c0,0.287,0.232,0.519,0.519,0.519c0.287,0,0.519-0.232,0.519-0.519
				c0-0.287-0.232-0.519-0.519-0.519C345.662,154.325,345.43,154.557,345.43,154.844z"/>
			<path style="fill:#E0E0E0;" d="M335.242,154.844c0,0.287,0.232,0.519,0.519,0.519s0.519-0.232,0.519-0.519
				c0-0.287-0.232-0.519-0.519-0.519S335.242,154.557,335.242,154.844z"/>
			<path style="fill:#E0E0E0;" d="M390.879,159.487c0,0.287,0.232,0.519,0.519,0.519c0.286,0,0.519-0.232,0.519-0.519
				c0-0.287-0.232-0.519-0.519-0.519C391.111,158.968,390.879,159.201,390.879,159.487z"/>
			<circle style="fill:#E0E0E0;" cx="408.687" cy="153.724" r="0.519"/>
			<path style="fill:#E0E0E0;" d="M413.03,201.167c0,0.287,0.232,0.519,0.519,0.519c0.287,0,0.519-0.232,0.519-0.519
				s-0.232-0.519-0.519-0.519C413.262,200.648,413.03,200.88,413.03,201.167z"/>
			<circle style="fill:#E0E0E0;" cx="389.686" cy="198.709" r="0.519"/>
			<path style="fill:#E0E0E0;" d="M372.129,200.648c0,0.287,0.232,0.519,0.519,0.519c0.287,0,0.519-0.232,0.519-0.519
				c0-0.287-0.232-0.519-0.519-0.519C372.361,200.129,372.129,200.361,372.129,200.648z"/>
			
				<rect x="318.062" y="181.419" transform="matrix(-1 -1.224647e-16 1.224647e-16 -1 664.5294 380.6472)" style="fill:#E0E0E0;" width="28.406" height="17.808"/>
			
				<rect x="327.785" y="201.686" transform="matrix(-1 -1.224647e-16 1.224647e-16 -1 680.3711 422.9471)" style="fill:#E0E0E0;" width="24.8" height="19.576"/>
		</g>
	</g>
</g>
<g id="Background_Simple" style="display:none;">
	<g style="display:inline;">
		<path style="fill:#407BFF;" d="M166.266,193.199c27.898-2.298,53.297-18.793,73.786-40.686
			c90.019-113.44,256.095-16.106,150.204,124.514C338.675,349.94,274.302,359.589,208.6,359.43
			C76.435,366.155,68.189,249.806,82.914,217.084C98.05,185.042,139.476,196.23,166.266,193.199z"/>
		<path style="opacity:0.9;fill:#FFFFFF;" d="M166.266,193.199c27.898-2.298,53.297-18.793,73.786-40.686
			c90.019-113.44,256.095-16.106,150.204,124.514C338.675,349.94,274.302,359.589,208.6,359.43
			C76.435,366.155,68.189,249.806,82.914,217.084C98.05,185.042,139.476,196.23,166.266,193.199z"/>
	</g>
</g>
<g id="Shadow_1_">
	<ellipse id="_x3C_Path_x3E__359_" style="fill:#F5F5F5;" cx="250" cy="416.238" rx="193.889" ry="11.323"/>
</g>
<g id="Floppy_Disk_1_1_">
	<g>
		<path style="fill:#263238;" d="M93.932,226.463L81.071,340.595c-0.144,1.275,0.774,2.425,2.049,2.569l124.644,14.046
			c1.275,0.144,2.425-0.773,2.569-2.049l14.046-124.644c0.144-1.275-0.773-2.425-2.049-2.569l-114.132-12.861
			c-0.612-0.069-1.227,0.108-1.709,0.492l-11.697,9.328C94.311,225.291,94.001,225.851,93.932,226.463z"/>
		<path style="fill:#407BFF;" d="M95.82,337.856l-0.75,6.654l100.743,11.352l0.75-6.654c0.358-3.18-1.925-6.044-5.105-6.402
			l-89.235-10.056C99.042,332.393,96.178,334.676,95.82,337.856z"/>
		<g>
			<path style="opacity:0.2;enable-background:new    ;" d="M122.058,216.648l-4.569,40.549c-0.22,1.956,1.187,3.721,3.143,3.941
				l81.237,9.154c1.956,0.221,3.721-1.187,3.941-3.143l4.569-40.549L122.058,216.648z"/>
			<g>
				<path style="fill:#407BFF;" d="M122.056,216.651l-4.569,40.544c-0.221,1.957,1.19,3.727,3.148,3.947l55.071,6.206
					c1.958,0.221,3.717-1.191,3.937-3.149l4.569-40.543L122.056,216.651z M142.167,258.496l-13.892-1.566l3.84-34.074l13.892,1.565
					L142.167,258.496z M178.108,228.18l-9.748-1.099l0.353-3.13l9.748,1.098L178.108,228.18z"/>
				<path style="opacity:0.6;fill:#FFFFFF;enable-background:new    ;" d="M122.056,216.651l-4.569,40.544
					c-0.221,1.957,1.19,3.727,3.148,3.947l55.071,6.206c1.958,0.221,3.717-1.191,3.937-3.149l4.569-40.543L122.056,216.651z
					 M142.167,258.496l-13.892-1.566l3.84-34.074l13.892,1.565L142.167,258.496z M178.108,228.18l-9.748-1.099l0.353-3.13
					l9.748,1.098L178.108,228.18z"/>
			</g>
		</g>
		
			<rect x="199.884" y="346.31" transform="matrix(-0.9937 -0.112 0.112 -0.9937 367.2641 719.5786)" style="opacity:0.2;enable-background:new    ;" width="7.912" height="6.33"/>
		
			<rect x="84.57" y="333.316" transform="matrix(-0.9937 -0.112 0.112 -0.9937 138.8163 680.7585)" style="opacity:0.2;enable-background:new    ;" width="7.912" height="6.33"/>
		<polygon style="opacity:0.2;enable-background:new    ;" points="215.801,243.334 217.516,252.816 212.02,252.197 		"/>
		<g>
			
				<ellipse transform="matrix(0.9368 -0.3498 0.3498 0.9368 -95.8624 72.6357)" style="opacity:0.6;fill:#FFFFFF;enable-background:new    ;" cx="153.166" cy="301.72" rx="18.45" ry="18.45"/>
			<path style="opacity:0.4;enable-background:new    ;" d="M155.377,306.604l-4.558-0.514c-1.132-0.128-1.947-1.149-1.819-2.281
				l0.514-4.558c0.128-1.132,1.149-1.947,2.281-1.819l4.558,0.514c1.132,0.128,1.947,1.149,1.819,2.281l-0.514,4.558
				C157.53,305.918,156.509,306.732,155.377,306.604z"/>
			<path style="opacity:0.4;enable-background:new    ;" d="M150.834,293.852l-4.27,3.405c-0.486,0.388-1.195,0.308-1.583-0.178
				l-1.534-1.924c-0.388-0.486-0.308-1.195,0.178-1.582l4.27-3.405c0.486-0.388,1.195-0.308,1.582,0.178l1.535,1.924
				C151.4,292.756,151.321,293.464,150.834,293.852z"/>
		</g>
		<path style="opacity:0.6;fill:#FFFFFF;enable-background:new    ;" d="M95.82,337.856l-0.75,6.654l100.743,11.352l0.75-6.654
			c0.358-3.18-1.925-6.044-5.105-6.402l-89.235-10.056C99.042,332.393,96.178,334.676,95.82,337.856z"/>
	</g>
</g>
<g id="Floppy_Disk_2">
	<g>
		<path style="fill:#407BFF;" d="M267.091,136.081l25.104,112.077c0.28,1.252-0.507,2.495-1.759,2.775l-122.4,27.416
			c-1.252,0.281-2.495-0.507-2.775-1.759l-27.416-122.4c-0.281-1.252,0.507-2.495,1.759-2.775l112.077-25.104
			c0.601-0.135,1.232-0.025,1.752,0.305l12.635,8.011C266.589,134.957,266.957,135.48,267.091,136.081z"/>
		<path style="opacity:0.6;fill:#FFFFFF;enable-background:new    ;" d="M264.777,191.402l13.923,62.16l-98.929,22.159
			l-13.923-62.16c-0.699-3.123,1.262-6.216,4.384-6.915l87.629-19.628C260.984,186.318,264.078,188.28,264.777,191.402z"/>
		<g>
			<path style="opacity:0.2;enable-background:new    ;" d="M238.07,129.359l8.919,39.819c0.43,1.921-0.778,3.827-2.699,4.257
				l-79.775,17.869c-1.921,0.43-3.827-0.778-4.257-2.699l-8.919-39.819L238.07,129.359z"/>
			<g>
				<path style="fill:#407BFF;" d="M177.033,143.031l8.919,39.819c0.43,1.921,2.336,3.129,4.257,2.699l54.081-12.114
					c1.921-0.43,3.129-2.336,2.699-4.257l-8.919-39.819L177.033,143.031z M236.236,170.075l-13.642,3.056l-7.495-33.461
					l13.642-3.056L236.236,170.075z"/>
				<path style="opacity:0.6;fill:#FFFFFF;enable-background:new    ;" d="M177.033,143.031l8.919,39.819
					c0.43,1.921,2.336,3.129,4.257,2.699l54.081-12.114c1.921-0.43,3.129-2.336,2.699-4.257l-8.919-39.819L177.033,143.031z
					 M236.236,170.075l-13.642,3.056l-7.495-33.461l13.642-3.056L236.236,170.075z"/>
			</g>
		</g>
		
			<rect x="167.145" y="267.072" transform="matrix(0.9758 -0.2186 0.2186 0.9758 -54.9279 43.9308)" style="opacity:0.2;enable-background:new    ;" width="7.912" height="6.33"/>
		
			<rect x="280.383" y="241.708" transform="matrix(0.9758 -0.2186 0.2186 0.9758 -46.648 68.0709)" style="opacity:0.2;enable-background:new    ;" width="7.912" height="6.33"/>
		<polygon style="opacity:0.2;enable-background:new    ;" points="147.755,166.006 147.074,175.618 152.471,174.41 		"/>
		<g style="opacity:0.2;enable-background:new    ;">
			<g>
				<path d="M259.684,212.949l-80.039,17.928c-0.135,0.03-0.268-0.055-0.299-0.189c-0.03-0.135,0.054-0.268,0.189-0.299
					l80.039-17.928c0.135-0.03,0.268,0.054,0.299,0.189C259.904,212.785,259.819,212.919,259.684,212.949z"/>
			</g>
			<g>
				<path d="M262.048,223.5l-80.039,17.928c-0.135,0.03-0.268-0.055-0.299-0.189s0.054-0.268,0.189-0.299l80.039-17.928
					c0.135-0.03,0.268,0.055,0.299,0.189C262.267,223.337,262.183,223.47,262.048,223.5z"/>
			</g>
			<g>
				<path d="M264.411,234.052l-80.039,17.928c-0.135,0.03-0.268-0.054-0.299-0.189c-0.03-0.135,0.055-0.268,0.189-0.299
					l80.039-17.928c0.135-0.03,0.268,0.055,0.299,0.189C264.631,233.889,264.546,234.022,264.411,234.052z"/>
			</g>
			<g>
				<path d="M266.775,244.604l-80.039,17.928c-0.135,0.03-0.268-0.055-0.299-0.189c-0.03-0.135,0.055-0.268,0.189-0.299
					l80.039-17.928c0.135-0.03,0.268,0.054,0.299,0.189C266.994,244.44,266.909,244.574,266.775,244.604z"/>
			</g>
		</g>
		<path style="fill:#263238;" d="M264.777,191.402l1.559,6.958l-98.929,22.159l-1.558-6.958c-0.699-3.123,1.262-6.216,4.384-6.915
			l87.629-19.628C260.984,186.318,264.078,188.28,264.777,191.402z"/>
		<g>
			<g>
				<path style="fill:#263238;" d="M199.939,255.19c-0.061,0-0.123-0.011-0.182-0.034c-0.181-0.07-0.305-0.24-0.317-0.435
					l-1.623-25.704c-1.678,0.997-2.876,2.083-2.901,2.106c-0.204,0.188-0.52,0.175-0.706-0.031c-0.187-0.203-0.173-0.52,0.031-0.706
					c0.226-0.206,5.583-5.049,10.064-3.811c2.14,0.593,3.688,2.454,4.601,5.529c3.356,11.314-8.13,22.477-8.621,22.946
					C200.19,255.143,200.065,255.19,199.939,255.19z M198.699,228.529c0.061,0.077,0.1,0.173,0.107,0.279l1.561,24.719
					c2.534-2.744,10.269-12.074,7.58-21.136c-0.808-2.724-2.123-4.356-3.909-4.851C202.308,227.06,200.353,227.678,198.699,228.529z
					"/>
			</g>
			<g>
				<path style="fill:#263238;" d="M212.676,254.387c-0.016,0-0.033-0.001-0.049-0.002c-0.275-0.027-0.476-0.272-0.449-0.547
					c1.266-12.9,3.134-28.368,4.849-28.789c0.138-0.036,0.354-0.043,0.6,0.107c2.079,1.267,6.51,19.372,7.377,22.99
					c0.064,0.269-0.101,0.538-0.37,0.603c-0.266,0.068-0.538-0.102-0.603-0.37c-2.414-10.069-5.535-20.835-6.783-22.244
					c-1.06,1.873-2.865,15.46-4.076,27.801C213.148,254.193,212.931,254.387,212.676,254.387z M217.367,225.972"/>
			</g>
			<g>
				<path style="fill:#263238;" d="M211.659,242.458c-0.167,0-0.331-0.084-0.425-0.236c-0.146-0.235-0.073-0.543,0.161-0.688
					c0.226-0.141,5.608-3.443,11.688-4.162c0.27-0.039,0.523,0.162,0.555,0.438c0.032,0.274-0.164,0.523-0.438,0.555
					c-5.854,0.693-11.225,3.986-11.278,4.02C211.84,242.434,211.749,242.458,211.659,242.458z"/>
			</g>
			<g>
				<path style="fill:#263238;" d="M231.637,245.173c-0.229,0-0.435-0.158-0.487-0.391c-0.649-2.899-1.193-5.928-1.718-8.857
					c-1.045-5.824-2.126-11.847-4.085-17.069c-0.097-0.259,0.034-0.547,0.293-0.644c0.259-0.095,0.547,0.034,0.644,0.292
					c1.991,5.307,3.079,11.376,4.132,17.245c0.523,2.918,1.065,5.937,1.71,8.815c0.061,0.269-0.109,0.537-0.378,0.598
					C231.71,245.169,231.673,245.173,231.637,245.173z"/>
			</g>
			<g>
				<path style="fill:#263238;" d="M216.099,221.356c-0.186,0-0.364-0.104-0.45-0.281c-0.121-0.248-0.018-0.547,0.231-0.669
					c1.461-0.711,14.388-6.895,18.108-5.103c0.566,0.273,0.935,0.725,1.065,1.308c0.061,0.27-0.109,0.537-0.378,0.597
					c-0.271,0.063-0.537-0.109-0.597-0.378c-0.064-0.285-0.23-0.484-0.524-0.626c-2.781-1.342-13.385,3.228-17.236,5.102
					C216.247,221.34,216.172,221.356,216.099,221.356z"/>
			</g>
			<g>
				<path style="fill:#263238;" d="M236.702,245.064c-0.251,0-0.467-0.189-0.496-0.443c-0.457-3.99-2.511-23.95,1.948-24.948
					c3.439-0.772,7.592,16.065,8.785,21.244c0.062,0.27-0.106,0.537-0.375,0.6c-0.271,0.064-0.538-0.105-0.6-0.375
					c-2.337-10.148-5.902-20.878-7.591-20.493c-2.774,0.621-2.192,14.964-1.174,23.859c0.032,0.274-0.165,0.522-0.44,0.554
					C236.74,245.063,236.721,245.064,236.702,245.064z"/>
			</g>
			<g>
				<path style="fill:#263238;" d="M234.137,233.611c-0.232,0-0.44-0.162-0.489-0.398c-0.056-0.271,0.118-0.535,0.389-0.591
					c0.076-0.017,7.685-1.609,11.042-4.054c0.223-0.163,0.536-0.113,0.699,0.11c0.163,0.223,0.113,0.536-0.11,0.699
					c-3.533,2.572-11.108,4.158-11.429,4.224C234.204,233.608,234.17,233.611,234.137,233.611z"/>
			</g>
		</g>
	</g>
</g>
<g id="Desk">
	<g>
		<g>
			<rect x="282.955" y="261.461" style="fill:#263238;" width="20.511" height="9.747"/>
			<rect x="281.834" y="271.208" style="fill:#263238;" width="22.753" height="1.444"/>
			<rect x="282.955" y="261.461" style="opacity:0.4;fill:#FFFFFF;enable-background:new    ;" width="20.511" height="9.747"/>
			<rect x="281.834" y="271.208" style="opacity:0.6;fill:#FFFFFF;enable-background:new    ;" width="22.753" height="1.444"/>
			<polygon style="fill:#263238;" points="287.792,232.421 261.852,238.523 261.852,259.788 285.019,264.427 			"/>
			<polygon style="opacity:0.6;fill:#FFFFFF;enable-background:new    ;" points="287.791,232.424 285.015,264.422 275.77,262.571 
				261.85,259.786 261.85,238.528 278.481,234.611 			"/>
			<polygon style="opacity:0.2;enable-background:new    ;" points="287.791,232.424 285.015,264.422 275.77,262.571 
				278.481,234.611 			"/>
			<path style="fill:#263238;" d="M326.519,267.347h-46.113c-1.027,0-1.86-0.832-1.86-1.86v-33.414c0-1.027,0.832-1.86,1.86-1.86
				h46.113c1.027,0,1.86,0.833,1.86,1.86v33.414C328.379,266.514,327.546,267.347,326.519,267.347z"/>
			<path style="opacity:0.6;fill:#FFFFFF;enable-background:new    ;" d="M326.519,267.347h-46.113c-1.027,0-1.86-0.832-1.86-1.86
				v-33.414c0-1.027,0.832-1.86,1.86-1.86h46.113c1.027,0,1.86,0.833,1.86,1.86v33.414
				C328.379,266.514,327.546,267.347,326.519,267.347z"/>
			<path style="opacity:0.4;fill:#FFFFFF;enable-background:new    ;" d="M326.519,267.347h-40.412c-1.027,0-1.86-0.832-1.86-1.86
				v-33.414c0-1.027,0.833-1.86,1.86-1.86h40.412c1.027,0,1.86,0.833,1.86,1.86v33.414
				C328.379,266.514,327.546,267.347,326.519,267.347z"/>
			<rect x="289.789" y="234.878" style="opacity:0.4;enable-background:new    ;" width="33.044" height="27.8"/>
			<path style="fill:#407BFF;" d="M321.258,261.798h-31.469v-26.041h31.469C322.618,244.378,322.618,253.177,321.258,261.798z"/>
			<polygon style="fill:#263238;" points="310.708,274.741 275.713,274.741 275.713,273.668 281.014,272.348 305.408,272.348 
				310.708,273.668 			"/>
			<polygon style="opacity:0.7;fill:#FFFFFF;enable-background:new    ;" points="310.708,274.741 275.713,274.741 275.713,273.668 
				281.014,272.348 305.408,272.348 310.708,273.668 			"/>
			<path style="opacity:0.2;fill:#FFFFFF;enable-background:new    ;" d="M321.258,261.798h-31.469v-26.041h31.469
				C322.618,244.378,322.618,253.177,321.258,261.798z"/>
		</g>
		<g>
			<path style="fill:#263238;" d="M333.864,275.828v17.116c0,0.611-0.496,1.107-1.106,1.107h-73.673
				c-0.611,0-1.106-0.496-1.106-1.107v-17.116c0-0.611,0.496-1.107,1.106-1.107h73.673
				C333.368,274.722,333.864,275.217,333.864,275.828z"/>
			<path style="opacity:0.6;fill:#FFFFFF;enable-background:new    ;" d="M333.864,275.828v17.116c0,0.611-0.496,1.107-1.106,1.107
				h-73.673c-0.611,0-1.106-0.496-1.106-1.107v-17.116c0-0.611,0.496-1.107,1.106-1.107h73.673
				C333.368,274.722,333.864,275.217,333.864,275.828z"/>
			<path style="opacity:0.4;fill:#FFFFFF;enable-background:new    ;" d="M333.864,275.828v17.116c0,0.611-0.496,1.107-1.106,1.107
				h-50.621c-0.611,0-1.106-0.496-1.106-1.107v-17.116c0-0.611,0.495-1.107,1.106-1.107h50.621
				C333.368,274.722,333.864,275.217,333.864,275.828z"/>
			<path style="opacity:0.2;enable-background:new    ;" d="M326.796,278.925L326.796,278.925c-0.589,0-1.066-0.477-1.066-1.066l0,0
				c0-0.589,0.477-1.066,1.066-1.066l0,0c0.589,0,1.066,0.477,1.066,1.066l0,0C327.861,278.448,327.384,278.925,326.796,278.925z"/>
			<rect x="329.274" y="276.793" style="opacity:0.2;enable-background:new    ;" width="2.131" height="2.131"/>
			<g>
				
					<rect x="285.137" y="278.692" style="opacity:0.2;fill:none;stroke:#000000;stroke-width:0.5;stroke-miterlimit:10;enable-background:new    ;" width="15.575" height="5.612"/>
				
					<rect x="285.137" y="286.106" style="opacity:0.2;fill:none;stroke:#000000;stroke-width:0.5;stroke-miterlimit:10;enable-background:new    ;" width="15.575" height="5.612"/>
				<path style="opacity:0.2;enable-background:new    ;" d="M295.045,281.038c-0.322-0.473-1.152-0.795-2.121-0.795
					c-0.968,0-1.798,0.323-2.121,0.795h-4.172v0.91h4.161h4.265h4.161v-0.91H295.045z"/>
				<polygon style="opacity:0.2;enable-background:new    ;" points="299.214,288.456 295.224,288.456 295.224,287.639 
					290.626,287.639 290.626,288.456 286.636,288.456 286.636,289.368 290.626,289.368 290.626,290.185 295.224,290.185 
					295.224,289.368 299.214,289.368 				"/>
				
					<line style="fill:none;stroke:#263238;stroke-width:0.25;stroke-miterlimit:10;" x1="286.636" y1="288.912" x2="299.214" y2="288.912"/>
				
					<line style="fill:none;stroke:#263238;stroke-width:0.25;stroke-miterlimit:10;" x1="286.636" y1="281.498" x2="299.213" y2="281.498"/>
				<rect x="286.636" y="290.364" style="opacity:0.2;enable-background:new    ;" width="1.306" height="0.418"/>
				<rect x="286.636" y="282.86" style="opacity:0.2;enable-background:new    ;" width="1.306" height="0.418"/>
			</g>
			<polygon style="opacity:0.2;enable-background:new    ;" points="333.864,287.802 304.876,287.802 304.876,274.741 
				304.299,274.741 304.299,294.05 304.876,294.05 304.876,288.379 333.864,288.379 			"/>
		</g>
		<g>
			<polygon style="fill:#407BFF;" points="268.517,294.034 268.517,291.238 270.394,291.238 268.517,290.147 269.925,290.147 
				268.048,288.919 266.271,288.919 266.271,287.511 268.333,287.511 266.271,286.69 266.271,283.64 268.333,283.64 
				268.333,281.645 270.394,281.645 268.333,280.953 268.333,279.533 269.808,279.533 268.601,278.326 267.556,277.281 
				235.598,277.281 235.598,278.712 233.486,278.712 235.832,279.768 235.832,280.953 231.521,280.953 231.521,283.155 
				229.614,283.155 231.521,284.109 231.521,286.573 232.876,286.573 232.876,287.746 235.598,287.746 235.598,291.238 
				234.072,291.238 235.32,292.486 235.32,294.047 			"/>
			<polygon style="opacity:0.7;fill:#FFFFFF;enable-background:new    ;" points="268.517,294.034 268.517,291.238 270.394,291.238 
				268.517,290.147 269.925,290.147 268.048,288.919 266.271,288.919 266.271,287.511 268.333,287.511 266.271,286.69 
				266.271,283.64 268.333,283.64 268.333,281.645 270.394,281.645 268.333,280.953 268.333,279.533 269.808,279.533 
				268.601,278.326 267.556,277.281 235.598,277.281 235.598,278.712 233.486,278.712 235.832,279.768 235.832,280.953 
				231.521,280.953 231.521,283.155 229.614,283.155 231.521,284.109 231.521,286.573 232.876,286.573 232.876,287.746 
				235.598,287.746 235.598,291.238 234.072,291.238 235.32,292.486 235.32,294.047 			"/>
			<polygon style="opacity:0.1;enable-background:new    ;" points="268.517,294.034 268.517,291.238 270.394,291.238 
				268.517,290.147 269.925,290.147 268.048,288.919 266.271,288.919 266.271,287.511 268.333,287.511 266.271,286.69 
				266.271,283.64 268.333,283.64 268.333,281.645 270.394,281.645 268.333,280.953 268.333,279.533 269.808,279.533 
				268.601,278.326 267.556,277.281 250.723,277.281 250.723,278.712 248.611,278.712 250.958,279.768 250.958,280.953 
				246.646,280.953 246.646,283.155 244.739,283.155 246.646,284.109 246.646,286.573 248.001,286.573 248.001,287.746 
				250.723,287.746 250.723,291.238 249.198,291.238 250.445,292.486 250.445,294.047 			"/>
			<polygon style="opacity:0.1;enable-background:new    ;" points="235.832,280.953 250.958,280.953 235.832,280.404 			"/>
			<polygon style="opacity:0.1;enable-background:new    ;" points="235.598,287.746 250.723,287.746 250.789,288.802 			"/>
			<polygon style="opacity:0.1;enable-background:new    ;" points="232.876,286.573 248.001,286.573 232.876,287.1 			"/>
			<polygon style="opacity:0.1;enable-background:new    ;" points="235.598,291.238 250.723,291.238 235.598,290.679 			"/>
			<polygon style="opacity:0.1;enable-background:new    ;" points="235.32,292.486 250.445,292.486 250.445,293.062 			"/>
			<polygon style="opacity:0.1;enable-background:new    ;" points="231.521,283.155 246.646,283.155 231.521,282.669 			"/>
			<polygon style="opacity:0.1;enable-background:new    ;" points="235.598,278.712 250.723,278.712 235.598,278.184 			"/>
			<polygon style="opacity:0.1;enable-background:new    ;" points="268.333,279.533 252.991,279.533 268.333,280.002 			"/>
			<polygon style="opacity:0.1;enable-background:new    ;" points="250.958,280.953 268.333,280.953 252.581,281.469 			"/>
			<polygon style="opacity:0.1;enable-background:new    ;" points="246.646,283.155 268.333,283.64 268.333,283.155 			"/>
			<polygon style="opacity:0.1;enable-background:new    ;" points="246.646,284.109 257.374,284.109 246.646,284.637 			"/>
			<polygon style="opacity:0.1;enable-background:new    ;" points="266.271,286.69 250.723,286.573 266.271,286.22 			"/>
			<polygon style="opacity:0.1;enable-background:new    ;" points="266.271,287.511 250.445,287.511 266.271,288.039 			"/>
			<polygon style="opacity:0.1;enable-background:new    ;" points="268.517,290.147 250.958,290.147 250.958,290.679 			"/>
			<polygon style="opacity:0.1;enable-background:new    ;" points="268.517,291.238 255.793,291.238 268.517,291.588 			"/>
		</g>
		<g>
			<g>
				<polygon style="fill:#263238;" points="310.284,416.088 314.945,416.088 323.319,299.496 317.136,299.496 				"/>
				<polygon style="opacity:0.1;fill:#FFFFFF;enable-background:new    ;" points="310.282,416.088 314.945,416.088 
					322.911,305.287 323.322,299.683 317.136,299.683 316.802,305.287 				"/>
				<polygon style="opacity:0.2;enable-background:new    ;" points="316.802,305.009 322.911,305.009 323.322,299.683 
					317.136,299.683 				"/>
			</g>
			<g>
				<polygon style="fill:#263238;" points="276.079,416.088 280.74,416.088 281.501,299.496 275.318,299.496 				"/>
				<polygon style="opacity:0.1;fill:#FFFFFF;enable-background:new    ;" points="275.314,299.683 275.436,318.495 
					276.075,416.088 280.739,416.088 281.378,318.495 281.5,299.683 				"/>
				<polygon style="opacity:0.2;enable-background:new    ;" points="275.314,299.683 275.436,318.704 281.378,318.704 
					281.5,299.683 				"/>
			</g>
			<g>
				<polygon style="fill:#263238;" points="226.595,416.088 231.256,416.088 239.63,299.496 233.447,299.496 				"/>
				<polygon style="opacity:0.1;fill:#FFFFFF;enable-background:new    ;" points="226.592,416.088 231.256,416.088 
					239.221,305.287 239.632,299.683 233.447,299.683 233.112,305.287 				"/>
				<polygon style="opacity:0.2;enable-background:new    ;" points="233.112,305.009 239.221,305.009 239.632,299.683 
					233.447,299.683 				"/>
			</g>
			<g>
				<polygon style="fill:#263238;" points="363.604,416.088 368.265,416.088 361.413,299.496 355.23,299.496 				"/>
				<polygon style="opacity:0.1;fill:#FFFFFF;enable-background:new    ;" points="355.23,299.683 355.641,305.287 363.607,416.088 
					368.263,416.088 361.751,305.287 361.416,299.683 				"/>
				<polygon style="opacity:0.2;enable-background:new    ;" points="361.416,299.683 355.23,299.683 355.641,305.009 
					361.751,305.009 				"/>
			</g>
			<g>
				<path style="fill:#263238;" d="M230.19,302.415h134.479c0.909,0,1.645-0.736,1.645-1.645v-4.195H228.545v4.195
					C228.545,301.679,229.281,302.415,230.19,302.415z"/>
				<path style="opacity:0.4;fill:#FFFFFF;enable-background:new    ;" d="M230.19,302.415h134.479c0.909,0,1.645-0.736,1.645-1.645
					v-4.195H228.545v4.195C228.545,301.679,229.281,302.415,230.19,302.415z"/>
			</g>
			
				<rect x="228.545" y="296.576" transform="matrix(-1 -1.224647e-16 1.224647e-16 -1 594.8594 596.0714)" style="opacity:0.2;enable-background:new    ;" width="137.769" height="2.92"/>
			<g>
				<path style="fill:#263238;" d="M225.656,297.337h143.547c0.908,0,1.645-0.736,1.645-1.645l0,0c0-0.909-0.737-1.645-1.645-1.645
					H225.656c-0.908,0-1.645,0.737-1.645,1.645l0,0C224.011,296.601,224.748,297.337,225.656,297.337z"/>
				<path style="opacity:0.4;fill:#FFFFFF;enable-background:new    ;" d="M225.656,297.337h143.547
					c0.908,0,1.645-0.736,1.645-1.645l0,0c0-0.909-0.737-1.645-1.645-1.645H225.656c-0.908,0-1.645,0.737-1.645,1.645l0,0
					C224.011,296.601,224.748,297.337,225.656,297.337z"/>
			</g>
		</g>
		<g>
			<polygon style="fill:#263238;" points="353.801,294.051 300.91,294.051 300.91,290.852 340.119,290.852 353.801,292.853 			"/>
			<polygon style="opacity:0.6;fill:#FFFFFF;enable-background:new    ;" points="353.801,294.051 300.91,294.051 300.91,290.852 
				340.119,290.852 353.801,292.853 			"/>
			<polyline style="opacity:0.2;fill:#FFFFFF;enable-background:new    ;" points="299.899,290.852 315.628,293.062 
				353.801,293.062 340.119,290.852 300.91,290.852 			"/>
		</g>
	</g>
</g>
<g id="Plant">
	<g>
		<g>
			<path style="fill:none;stroke:#407BFF;stroke-miterlimit:10;" d="M188.625,352.622c0,0,5.903-4.922,10.965,0
				c5.062,4.921,6.038,35.41,6.038,35.41"/>
			<path style="fill:none;stroke:#407BFF;stroke-miterlimit:10;" d="M206.047,393.92c0,0-3.48-35.781,9.622-50.817"/>
			<path style="fill:none;stroke:#407BFF;stroke-miterlimit:10;" d="M204.801,390.149c0,0,2.68-40.733-7.146-49.77"/>
			<path style="fill:none;stroke:#407BFF;stroke-miterlimit:10;" d="M206.047,390.149c0,0,0.229-26.916,7.531-31.101
				c7.302-4.184,11.024,9.463,11.024,9.463"/>
			<path style="fill:none;stroke:#407BFF;stroke-miterlimit:10;" d="M203.163,390.149c0,0,1.191-20.664-4.466-28.049
				c-5.657-7.385-11.612,3.164-11.612,3.164"/>
			<path style="fill:none;stroke:#407BFF;stroke-miterlimit:10;" d="M205.134,392.917c0,0-3.658-48.326,2.396-56.514"/>
		</g>
		<g>
			<path style="fill:#407BFF;" d="M219.83,362.97c0,0-3.641,1.342-2.558,4.511c1.082,3.169,12.596,8.384,12.596,8.384
				s4.822-4.42,0.394-11.607C225.833,357.07,219.929,360.702,219.83,362.97z"/>
			<path style="opacity:0.2;enable-background:new    ;" d="M219.83,362.97c0,0-3.641,1.342-2.558,4.511
				c1.082,3.169,12.596,8.384,12.596,8.384s4.822-4.42,0.394-11.607C225.833,357.07,219.929,360.702,219.83,362.97z"/>
		</g>
		<g>
			<path style="fill:#407BFF;" d="M204.003,356.937c0,0,3.877-0.162,4.097,3.179c0.22,3.341-8.399,12.586-8.399,12.586
				s-6.151-2.224-4.83-10.562C196.192,353.802,203.039,354.882,204.003,356.937z"/>
			<path style="opacity:0.2;enable-background:new    ;" d="M204.003,356.937c0,0,3.877-0.162,4.097,3.179
				c0.22,3.341-8.399,12.586-8.399,12.586s-6.151-2.224-4.83-10.562C196.192,353.802,203.039,354.882,204.003,356.937z"/>
		</g>
		<g>
			<path style="fill:#407BFF;" d="M200.72,340.943c0,0,2.585-0.277,2.377-1.852c-0.208-1.574-10.048-5.627-15.854,0.926
				c0,0,3.717,6.386,9.091,6.469C201.708,346.569,200.72,340.943,200.72,340.943z"/>
			<path style="opacity:0.2;enable-background:new    ;" d="M200.72,340.943c0,0,2.585-0.277,2.377-1.852
				c-0.208-1.574-10.048-5.627-15.854,0.926c0,0,3.717,6.386,9.091,6.469C201.708,346.569,200.72,340.943,200.72,340.943z"/>
		</g>
		<g>
			<path style="fill:#407BFF;" d="M205.537,337.119c0,0-2.341,1.132-2.997-0.315c-0.656-1.446,5.552-10.09,13.945-7.599
				c0,0,0.222,7.385-4.294,10.298C207.674,342.417,205.537,337.119,205.537,337.119z"/>
			<path style="opacity:0.2;enable-background:new    ;" d="M205.537,337.119c0,0-2.341,1.132-2.997-0.315
				c-0.656-1.446,5.552-10.09,13.945-7.599c0,0,0.222,7.385-4.294,10.298C207.674,342.417,205.537,337.119,205.537,337.119z"/>
		</g>
		<g>
			<path style="fill:#407BFF;" d="M193.298,361.696c0,0,1.784-1.44-0.141-2.143c-1.925-0.703-11.372-0.504-11.47,8.854
				c0,0,11.002,1.828,12.364-1.736C195.413,363.106,193.298,361.696,193.298,361.696z"/>
			<path style="opacity:0.2;enable-background:new    ;" d="M193.298,361.696c0,0,1.784-1.44-0.141-2.143
				c-1.925-0.703-11.372-0.504-11.47,8.854c0,0,11.002,1.828,12.364-1.736C195.413,363.106,193.298,361.696,193.298,361.696z"/>
		</g>
		<g>
			<path style="fill:#407BFF;" d="M215.734,340.708c0,0-1.784-1.44,0.141-2.143c1.925-0.703,11.372-0.503,11.47,8.854
				c0,0-11.002,1.828-12.364-1.736C213.62,342.118,215.734,340.708,215.734,340.708z"/>
			<path style="opacity:0.2;enable-background:new    ;" d="M215.734,340.708c0,0-1.784-1.44,0.141-2.143
				c1.925-0.703,11.372-0.503,11.47,8.854c0,0-11.002,1.828-12.364-1.736C213.62,342.118,215.734,340.708,215.734,340.708z"/>
		</g>
		<g>
			<path style="fill:#407BFF;" d="M209.918,348.246c0,0-0.157-1.751,1.257-1.065c1.414,0.686,6.338,5.999,1.233,11.041
				c0,0-6.872-5.089-5.633-7.74C208.013,347.832,209.918,348.246,209.918,348.246z"/>
			<path style="opacity:0.2;enable-background:new    ;" d="M209.918,348.246c0,0-0.157-1.751,1.257-1.065
				c1.414,0.686,6.338,5.999,1.233,11.041c0,0-6.872-5.089-5.633-7.74C208.013,347.832,209.918,348.246,209.918,348.246z"/>
		</g>
		<g>
			<path style="fill:#407BFF;" d="M191.704,350.741c0,0,1.066-1.398-0.495-1.571c-1.562-0.173-8.561,1.695-6.931,8.682
				c0,0,8.527-0.641,8.893-3.543C193.535,351.407,191.704,350.741,191.704,350.741z"/>
			<path style="opacity:0.2;enable-background:new    ;" d="M191.704,350.741c0,0,1.066-1.398-0.495-1.571
				c-1.562-0.173-8.561,1.695-6.931,8.682c0,0,8.527-0.641,8.893-3.543C193.535,351.407,191.704,350.741,191.704,350.741z"/>
		</g>
		<polygon style="fill:#407BFF;" points="220.511,416.088 191.254,416.088 188.098,384.056 223.667,384.056 		"/>
		<rect x="186.535" y="380.522" style="fill:#407BFF;" width="38.694" height="7.068"/>
		<rect x="186.535" y="380.522" style="opacity:0.2;fill:#FFFFFF;enable-background:new    ;" width="38.694" height="7.068"/>
	</g>
</g>
<g id="Character">
	<g>
		<g id="_x3C_Group_x3E__104_">
			<path style="fill:#EBB376;" d="M361.331,289.034l-6.477,0.971c0,0-2.2-0.726-4.521-0.971c-2.322-0.244-5.01,0-5.01,0
				s-2.933,1.1-2.933,3.91c0,0,6.843,1.833,9.47,0.733l9.471-0.733V289.034z"/>
			<g>
				<path style="fill:#407BFF;" d="M376.701,264.337c-4.031,4.168-6.781,20.298-7.514,21.398c-0.733,1.1-14.664,3.116-14.664,3.116
					s-1.466,3.046,0,5.557c0,0,17.264-0.791,19.355-1.891c2.091-1.1,7.232-13.144,7.232-13.144s0.487-3.169-0.677-8.302
					C379.269,265.939,376.701,264.337,376.701,264.337z"/>
				<path style="opacity:0.6;fill:#FFFFFF;" d="M376.701,264.337c-4.031,4.168-6.781,20.298-7.514,21.398
					c-0.733,1.1-14.664,3.116-14.664,3.116s-1.466,3.046,0,5.557c0,0,17.264-0.791,19.355-1.891
					c2.091-1.1,7.232-13.144,7.232-13.144s0.487-3.169-0.677-8.302C379.269,265.939,376.701,264.337,376.701,264.337z"/>
			</g>
			<g>
				<path style="fill:none;stroke:#263238;stroke-width:0.25;stroke-miterlimit:10;" d="M345.88,241.071
					c0.152,1.152-0.131,2.14-0.632,2.206c-0.501,0.066-1.03-0.815-1.182-1.967c-0.152-1.152,0.131-2.14,0.632-2.206
					C345.199,239.038,345.728,239.919,345.88,241.071z"/>
				<path style="fill:#D58745;" d="M346.079,242.127c0,0-0.864,2.368-1.971,3.843c0,0,0.882,1.048,2.358,0.646L346.079,242.127z"/>
				<g>
					<path style="fill:#2E353A;" d="M344.985,240.983c0.08,0.696,0.521,1.217,0.985,1.163c0.464-0.053,0.775-0.661,0.695-1.356
						c-0.08-0.696-0.521-1.217-0.985-1.163C345.217,239.68,344.905,240.287,344.985,240.983z"/>
				</g>
				
					<path style="fill:none;stroke:#2E353A;stroke-width:0.7247;stroke-linecap:round;stroke-linejoin:round;stroke-miterlimit:10;" d="
					M345.164,238.209c0,0,0.511-0.141,1.135,0.398"/>
				<path style="fill:#EBB376;" d="M347.911,249.965c0.167,0.306,0.341,0.603,0.532,0.881c1.129,1.685,2.709,2.908,4.46,3.603
					c0.459,0.185,0.932,0.334,1.412,0.446c2.533,0.588,5.248,0.131,7.388-1.523c0.879-0.665,1.67-1.545,2.302-2.634
					c2.517-4.267,1.432-8.184,0.127-14.951c-0.259-1.462-0.849-2.844-1.742-4.024c-3.112-4.172-9.021-5.022-13.184-1.911
					C343.337,234.174,344.948,244.325,347.911,249.965z"/>
				<path style="opacity:0.2;enable-background:new    ;" d="M352.903,254.448c0.459,0.185,0.932,0.334,1.412,0.446
					c2.533,0.588,5.248,0.131,7.388-1.523c-0.795-1.171-1.764-1.963-1.764-1.963S355.798,251.802,352.903,254.448z"/>
				<path style="fill:#EBB376;" d="M372.304,259.136c-2.531,3.816-14.652,5.319-14.652,5.319s-5.372-0.106-4.714-1.943
					c2.836-1.237,3.92-2.98,4.066-4.897c0.083-1.116-0.158-2.287-0.554-3.456c-0.201-0.615-0.456-1.226-0.725-1.825l8.09-9.884
					C361.703,253.372,368.196,256.422,372.304,259.136z"/>
				<path style="fill:#263238;" d="M346.047,229.463c2.293-3.599,4.33-2.967,4.33-2.967c1.462-3.017,10.048-3.14,14.408-0.174
					c4.36,2.966,5.882,8.533,5.593,12.95c-0.421,6.433-4.454,12.975-4.454,12.975c-0.002,0.001-0.003,0.001-0.005,0.001
					c-5.074,1.353-9.327,0.24-9.654-2.446c-0.327-2.686-3.04-4.677-3.04-4.677c-2.497,0.843-4.758-1.941-4.758-1.941
					s-2.832-2.499-2.072-5.956C347.156,233.771,344.115,232.496,346.047,229.463z"/>
				
					<line style="fill:none;stroke:#263238;stroke-width:0.25;stroke-miterlimit:10;" x1="344.066" y1="241.31" x2="349.844" y2="241.19"/>
				<path style="fill:#EBB376;" d="M354.133,243.352c-0.032,1.552-0.561,2.82-1.471,3.524c-1.213,0.92-2.589-0.769-2.899-2.824
					c-0.263-1.824,0.025-4.559,1.563-4.596C352.862,239.42,354.153,241.439,354.133,243.352z"/>
			</g>
			<g>
				<path style="fill:#407BFF;" d="M355.117,262.514c0,0,1.955-8.785,13.748-8.7l2.994,4.35L355.117,262.514z"/>
				<path style="opacity:0.8;fill:#FFFFFF;" d="M355.117,262.514c0,0,1.955-8.785,13.748-8.7l2.994,4.35L355.117,262.514z"/>
			</g>
			<g>
				<path style="fill:#407BFF;" d="M364.155,310.124l-2.941-8.881c0,0-2.115-16.446-12.844-37.166c0,0,12.913-9.165,27.224-7.799
					c11.011,1.051,21.371,29.279,24.614,51.622L364.155,310.124z"/>
				<path style="opacity:0.9;fill:#FFFFFF;" d="M400.21,307.901l-36.05,2.225l-2.95-8.88c0,0-0.36-2.813-1.54-7.578
					c-0.82-3.275-2.02-7.484-3.77-12.333c-1.84-5.133-4.29-11-7.53-17.256c0,0,12.91-9.163,27.22-7.799
					C386.61,257.329,396.97,285.554,400.21,307.901z"/>
			</g>
			<path style="opacity:0.2;enable-background:new    ;" d="M359.67,294.446c-0.82-3.12-2.02-7.13-3.77-11.75
				c0.63-1.3,1.49-2.45,2.59-3.32C358.49,279.376,361.88,290.406,359.67,294.446z"/>
			<path style="fill:#EBB376;" d="M331.019,291.517l-5.455-0.879c0,0-2.2-0.726-4.521-0.97c-2.322-0.245-5.01,0-5.01,0
				s-2.933,1.1-2.933,3.91c0,0,6.843,1.833,9.471,0.733l8.054,1.822L331.019,291.517z"/>
			<path style="fill:#407BFF;" d="M348.37,264.337c-2.546,2.797-1.061,25.705-1.887,27.274c-0.826,1.569-19.912-1.601-19.912-1.601
				l-1.256,5.671c0,0,22.427,6.592,26.545,6.665c4.118,0.073,6.625-24.194,6.625-24.194s-0.567-3.379-3.581-7.684
				C351.89,266.162,348.37,264.337,348.37,264.337z"/>
			<path style="opacity:0.9;fill:#FFFFFF;" d="M348.37,264.337c-2.546,2.797-1.061,25.705-1.887,27.274
				c-0.826,1.569-19.912-1.601-19.912-1.601l-1.256,5.671c0,0,22.427,6.592,26.545,6.665c4.118,0.073,6.625-24.194,6.625-24.194
				s-0.567-3.379-3.581-7.684C351.89,266.162,348.37,264.337,348.37,264.337z"/>
			<path style="fill:#263238;" d="M371.898,407.962l7.886-0.492c0.274-0.03,0.521,0.169,0.55,0.443c0,0.003,0.001,0.006,0.001,0.008
				l0.774,6.221c0.042,0.68-0.47,1.268-1.15,1.318c-2.754,0.127-4.076,0.05-7.548,0.239c-2.13,0.127-6.328,0.58-9.267,0.296
				c-2.939-0.285-2.579-3.182-1.31-3.321c3.01-0.343,6.997-2.555,8.88-4.233C371.044,408.155,371.461,407.987,371.898,407.962z"/>
			<path style="fill:#407BFF;" d="M357.094,371.268c4.465,16.976,11.507,38.877,11.507,38.877l12.359-0.944
				c0,0-6.713-29.551-8.549-47.69c-1.137-11.197-1.036-20.464,2.241-21.18c2.064-0.455,6.892-0.438,13.076-0.295v-23.051
				c-17.356,3.564-34.627,10.287-35.941,15.679C349.949,340.256,353.159,356.322,357.094,371.268z"/>
			<path style="opacity:0.2;enable-background:new    ;" d="M357.094,371.268c4.617-2.924,10.017-6.361,15.317-9.756
				c-1.137-11.197-1.036-20.464,2.241-21.18c2.064-0.455,6.892-0.438,13.076-0.295v-23.051
				c-17.356,3.564-34.627,10.287-35.941,15.679C349.949,340.256,353.159,356.322,357.094,371.268z"/>
			<path style="opacity:0.2;fill:#FFFFFF;enable-background:new    ;" d="M357.094,371.268
				c4.465,16.976,11.507,38.877,11.507,38.877l12.359-0.944c0,0-6.713-29.551-8.549-47.69c-1.137-11.197-1.036-20.464,2.241-21.18
				c2.064-0.455,6.892-0.438,13.076-0.295v-23.051c-17.356,3.564-34.627,10.287-35.941,15.679
				C349.949,340.256,353.159,356.322,357.094,371.268z"/>
			<path style="fill:#263238;" d="M331.715,407.962l7.886-0.492c0.274-0.03,0.521,0.169,0.55,0.443c0,0.003,0.001,0.006,0.001,0.008
				l0.774,6.221c0.043,0.68-0.47,1.268-1.149,1.318c-2.754,0.127-4.076,0.05-7.548,0.239c-2.13,0.127-6.328,0.58-9.267,0.296
				c-2.939-0.285-2.579-3.182-1.31-3.321c3.01-0.343,6.997-2.555,8.88-4.233C330.862,408.155,331.278,407.987,331.715,407.962z"/>
			<path style="fill:#407BFF;" d="M363.855,314.721l-1.089-8.752l35.374-5.823c0,0,11.569,22.922,5.906,34.155
				c-5.195,10.306-60.482,4.167-68.993,6.027c-8.597,1.879,5.786,68.722,5.786,68.722l-12.359,0.944
				c0,0-20.216-61.118-16.289-77.325C313.904,325.596,343.049,316.234,363.855,314.721z"/>
			<path style="opacity:0.2;fill:#FFFFFF;enable-background:new    ;" d="M363.855,314.721l-1.089-8.752l35.374-5.823
				c0,0,11.569,22.922,5.906,34.155c-5.195,10.306-60.482,4.167-68.993,6.027c-8.597,1.879,5.786,68.722,5.786,68.722l-12.359,0.944
				c0,0-20.216-61.118-16.289-77.325C313.904,325.596,343.049,316.234,363.855,314.721z"/>
			<g>
				<polygon points="399.438,304.129 383.047,306.278 382.517,303.862 398.936,301.473 				"/>
				<polygon points="381.153,303.875 381.352,306.278 366.204,308.361 366.204,305.987 				"/>
				<polygon points="365.264,306.118 365.264,308.361 363.065,308.655 363.065,306.486 				"/>
			</g>
		</g>
		<g>
			<path style="fill:#407BFF;" d="M344.116,344.034h70.068v-4.459c0-3.752-3.042-6.794-6.794-6.794h-56.48
				c-3.752,0-6.794,3.041-6.794,6.793V344.034z"/>
			<path style="opacity:0.4;fill:#FFFFFF;enable-background:new    ;" d="M344.116,344.034h70.068v-4.459
				c0-3.752-3.042-6.794-6.794-6.794h-56.48c-3.752,0-6.794,3.041-6.794,6.793V344.034z"/>
			<path style="fill:#263238;" d="M391.197,304.919H352.62c-1.984,0-3.452,2.151-3.005,4.403l6.897,34.713h1.593l-5.876-30.422
				c-0.434-2.246,1.033-4.381,3.009-4.381h35.172L391.197,304.919z"/>
			<path style="fill:#263238;" d="M374.65,345.249v29.33c0,0.945,0.769,1.705,1.705,1.705h7.191c0.945,0,1.705-0.76,1.705-1.705
				v-29.33H374.65z"/>
			<g>
				<g>
					<path style="fill:#263238;" d="M414.343,412.972c0-1.721,1.395-3.116,3.116-3.116c1.721,0,3.116,1.395,3.116,3.116
						s-1.395,3.116-3.116,3.116C415.738,416.088,414.343,414.693,414.343,412.972z"/>
					<path style="opacity:0.2;fill:#FFFFFF;" d="M415.901,412.972c0-0.861,0.698-1.558,1.558-1.558c0.86,0,1.558,0.698,1.558,1.558
						s-0.698,1.558-1.558,1.558C416.599,414.53,415.901,413.833,415.901,412.972z"/>
				</g>
				<g>
					<path style="fill:#263238;" d="M339.331,412.972c0-1.721,1.395-3.116,3.116-3.116c1.721,0,3.116,1.395,3.116,3.116
						s-1.395,3.116-3.116,3.116C340.726,416.088,339.331,414.693,339.331,412.972z"/>
					<path style="opacity:0.2;fill:#FFFFFF;" d="M340.888,412.972c0-0.861,0.698-1.558,1.558-1.558c0.861,0,1.558,0.698,1.558,1.558
						s-0.698,1.558-1.558,1.558C341.586,414.53,340.888,413.833,340.888,412.972z"/>
				</g>
			</g>
			<path style="fill:#263238;" d="M377.375,399.299v-33.524h5.156v33.524c20.077,0.515,32.276,7.533,34.718,9.072
				c0.285,0.18,0.455,0.494,0.455,0.83v2.786c0,0.544-0.441,0.986-0.986,0.986l0,0c-0.354,0-0.681-0.19-0.856-0.497l-1.191-2.089
				c0,0-13.81-4.924-32.14-5.322v5.51c0,0.704-0.571,1.275-1.275,1.275h-2.606c-0.704,0-1.275-0.571-1.275-1.275v-5.51
				c-18.33,0.398-32.14,5.322-32.14,5.322l-1.191,2.089c-0.175,0.308-0.502,0.497-0.856,0.497l0,0c-0.544,0-0.986-0.441-0.986-0.986
				v-2.786c0-0.337,0.17-0.651,0.455-0.83C345.099,406.832,357.298,399.814,377.375,399.299z"/>
			
				<rect x="378.262" y="409.856" transform="matrix(-1 -1.224647e-16 1.224647e-16 -1 759.906 825.9441)" style="fill:#263238;" width="3.383" height="6.232"/>
			<rect x="374.65" y="345.249" style="opacity:0.2;enable-background:new    ;" width="10.601" height="12.186"/>
			<path style="fill:#263238;" d="M342.2,342.228v3.503c0,0.991,0.692,1.788,1.543,1.788h70.815c0.851,0,1.535-0.797,1.535-1.788
				v-3.503c0-0.982-0.684-1.788-1.535-1.788h-70.815C342.892,340.439,342.2,341.246,342.2,342.228z"/>
			<path style="fill:#263238;" d="M374.78,344.035h41.315c0,0,13.127-21.559,13.127-57.182v-13.081c0-5.374-4.416-9.735-9.865-9.735
				h-17.519c-5.338,0-9.706,4.188-9.858,9.46C391.471,291.85,388.734,331.598,374.78,344.035z"/>
			<path style="opacity:0.2;fill:#FFFFFF;" d="M383.868,344.035h30.359c1.174,0,2.25-0.639,2.791-1.668
				c2.988-5.692,12.204-25.666,12.204-55.514v-13.081c0-5.376-4.413-9.735-9.857-9.735h-15.14c-5.338,0-9.706,4.188-9.857,9.46
				c-0.455,16.397-2.688,49.871-13.11,65.689C379.881,341.275,381.345,344.035,383.868,344.035z"/>
			<path style="opacity:0.2;enable-background:new    ;" d="M342.2,342.228v3.503c0,0.988,0.687,1.788,1.535,1.788h31.736
				c1.147,0,2.076-1.083,2.076-2.418v-2.243c0-1.336-0.93-2.418-2.076-2.418h-31.728C342.892,340.439,342.2,341.246,342.2,342.228z"
				/>
		</g>
	</g>
</g>
</svg>
